<?xml version="1.0" standalone="no"?>
<!DOCTYPE svg PUBLIC "-//W3C//DTD SVG 20010904//EN"
 "http://www.w3.org/TR/2001/REC-SVG-20010904/DTD/svg10.dtd">
<svg version="1.0" xmlns="http://www.w3.org/2000/svg"
 width="1789.000000pt" height="942.000000pt" viewBox="0 0 1789.000000 942.000000"
 preserveAspectRatio="xMidYMid meet">

<g transform="translate(0.000000,942.000000) scale(0.100000,-0.100000)"
fill="#3C4C41" stroke="none">
<path d="M0 4710 l0 -4710 8945 0 8945 0 0 4710 0 4710 -8945 0 -8945 0 0
-4710z m5268 3946 c7 -35 12 -75 12 -90 0 -15 4 -25 8 -22 8 4 12 -27 15 -101
1 -20 7 -33 14 -33 7 0 13 -9 13 -20 0 -11 -5 -20 -12 -20 -7 0 -6 -6 4 -17
18 -21 43 -210 33 -243 -4 -12 -3 -20 1 -17 5 3 10 -16 11 -41 1 -25 4 -51 7
-57 2 -7 46 -14 115 -18 309 -18 663 -99 962 -222 648 -266 1170 -722 1519
-1329 288 -502 431 -959 466 -1488 4 -59 9 -107 13 -106 3 0 21 0 39 -1 24 -1
31 -5 26 -13 -6 -10 -4 -10 7 -2 24 18 200 1 238 -23 16 -10 26 -12 28 -6 5
13 43 5 43 -8 0 -5 7 -9 16 -9 8 0 12 5 8 11 -4 8 0 8 15 0 11 -7 39 -13 61
-16 22 -2 45 -7 50 -10 6 -4 26 -9 43 -11 18 -3 43 -7 57 -11 14 -3 30 -7 35
-8 27 -5 29 -7 10 -14 -11 -5 -28 -4 -39 1 -12 6 -16 6 -12 0 7 -12 -66 -22
-170 -22 -49 0 -84 -4 -84 -10 0 -5 5 -10 11 -10 5 0 8 -4 4 -10 -3 -5 -85 -8
-200 -7 l-194 2 -5 -50 c-17 -181 -40 -346 -61 -450 -92 -452 -290 -884 -584
-1270 -143 -188 -478 -507 -658 -625 -58 -38 -34 -17 78 70 115 88 398 372
499 500 83 104 201 278 255 375 41 74 16 43 -45 -55 -170 -273 -421 -548 -700
-767 -200 -156 -546 -349 -785 -439 -271 -101 -581 -169 -862 -190 -89 -7 -93
-8 -93 -30 0 -22 4 -24 58 -24 192 0 553 67 781 145 41 14 76 23 79 21 6 -7
-237 -84 -366 -116 -143 -35 -336 -67 -457 -76 l-90 -7 3 -218 c1 -144 -1
-219 -8 -219 -5 0 -10 3 -11 8 0 4 -3 41 -5 82 -3 41 -7 77 -10 79 -2 2 -3
-56 -3 -130 1 -74 -2 -165 -6 -204 -4 -38 -9 -81 -10 -95 -4 -40 -5 -41 -15
-35 -5 3 -7 12 -4 19 3 8 1 17 -5 21 -6 3 -11 24 -11 46 0 22 -5 49 -10 60 -8
14 -7 19 2 19 10 0 10 2 0 9 -8 5 -16 35 -19 70 -3 33 -9 61 -13 61 -13 0 -18
39 -6 44 8 3 8 7 -1 13 -12 9 -18 31 -31 130 -9 69 -9 104 3 123 5 9 4 11 -3
6 -8 -5 -12 3 -12 26 0 77 4 74 -153 81 -941 41 -1818 517 -2369 1283 -104
145 -187 287 -296 504 -187 375 -284 688 -329 1068 -16 137 -17 142 -40 142
-12 0 -23 5 -23 11 0 7 -4 8 -12 2 -15 -10 -184 8 -173 19 4 3 -9 3 -28 -1
-46 -11 -219 12 -225 29 -2 5 -17 7 -33 3 -16 -3 -29 -1 -29 4 0 6 -32 13 -71
17 -39 3 -79 11 -89 16 -10 6 -37 10 -59 10 -23 0 -41 5 -41 10 0 6 -12 10
-27 10 -33 0 -22 12 14 16 122 13 162 15 266 16 125 1 143 5 56 14 -29 3 -55
7 -57 9 -23 22 77 25 389 10 l157 -7 7 128 c36 693 267 1315 681 1826 85 105
252 279 364 377 75 67 240 195 240 188 0 -2 -46 -42 -102 -88 -135 -110 -323
-300 -432 -435 -96 -119 -236 -324 -286 -419 -17 -33 -25 -51 -18 -41 7 11 52
79 101 152 511 775 1385 1289 2292 1349 213 14 215 14 215 41 0 23 -3 24 -70
24 -238 0 -615 -68 -884 -160 -49 -16 -91 -28 -93 -26 -5 5 156 62 271 96 208
60 445 102 657 116 l106 7 -1 211 c-1 132 3 213 9 216 6 3 11 -26 13 -74 4
-134 12 -98 13 60 0 82 2 158 5 169 2 11 5 37 5 58 1 20 5 37 8 37 4 0 6 14 3
30 -8 59 15 29 26 -34z m-71 -178 c-3 -8 -6 -5 -6 6 -1 11 2 17 5 13 3 -3 4
-12 1 -19z m-1067 -728 c-8 -5 -19 -10 -25 -10 -5 0 -3 5 5 10 8 5 20 10 25
10 6 0 3 -5 -5 -10z m-50 -20 c-8 -5 -19 -10 -25 -10 -5 0 -3 5 5 10 8 5 20
10 25 10 6 0 3 -5 -5 -10z m6499 -170 c43 -12 92 -30 109 -40 38 -23 80 -88
101 -155 9 -27 24 -62 34 -77 17 -25 18 -72 18 -819 l-1 -792 -23 -26 c-14
-14 -28 -39 -31 -55 -4 -17 -17 -43 -28 -59 -12 -16 -27 -46 -33 -66 -16 -47
-58 -75 -159 -107 -104 -33 -170 -40 -237 -24 -120 28 -149 53 -275 232 l-47
67 2 510 c2 430 0 514 -12 533 -11 18 -16 78 -20 262 l-5 240 25 38 c20 29 24
45 19 69 -4 22 0 41 13 63 19 30 90 105 92 95 0 -2 2 -164 5 -359 4 -349 9
-496 19 -575 4 -30 3 -35 -4 -20 -7 15 -10 6 -10 -40 -1 -33 -5 -67 -10 -74
-6 -9 -6 -22 1 -35 6 -11 13 -59 16 -106 4 -83 3 -88 -19 -104 -23 -17 -23
-18 -2 -11 22 6 23 6 16 -88 -4 -61 -2 -100 5 -113 10 -16 11 -14 12 19 0 20
5 37 10 37 6 0 10 33 11 78 0 102 11 157 29 158 51 5 53 7 15 18 -40 13 -40
13 -43 67 -2 29 -8 56 -14 60 -6 4 -7 13 -1 25 7 15 9 197 3 297 -2 29 22 43
66 39 l41 -4 7 -96 c3 -54 6 -178 5 -277 -2 -323 0 -379 12 -480 13 -112 29
-148 75 -170 110 -52 197 51 180 213 -4 37 -9 331 -12 654 -4 645 -2 631 -64
663 -31 16 -107 20 -127 7 -36 -23 -73 -225 -73 -396 l0 -108 -42 6 c-24 3
-49 7 -57 8 -10 1 -12 16 -6 72 3 41 2 83 -4 97 -5 15 -6 30 -1 35 8 8 14 116
10 194 -2 32 -3 33 -10 10 -5 -16 -8 13 -9 83 -1 101 0 107 19 107 11 0 20 6
20 14 0 8 12 28 26 45 27 33 26 75 -1 64 -9 -3 -18 2 -22 12 -6 17 -7 17 -20
-1 -14 -18 -14 -18 -11 6 2 20 9 26 35 28 20 2 37 11 43 23 6 10 21 19 33 20
12 0 47 9 77 19 65 22 116 20 229 -10z m1666 -5 c33 -8 80 -14 104 -15 30 0
52 -6 65 -19 12 -10 41 -30 66 -44 37 -20 46 -31 50 -58 3 -19 14 -47 24 -62
28 -41 47 -120 52 -217 6 -99 -4 -126 -57 -154 -33 -18 -42 -19 -106 -7 -61
11 -72 16 -87 43 -15 24 -17 43 -12 90 6 58 5 59 -35 103 -61 66 -111 58 -155
-25 -18 -33 -19 -71 -18 -727 l0 -693 24 -25 c33 -35 84 -48 126 -30 55 23 68
54 74 184 l5 116 35 12 c43 15 120 16 155 3 35 -13 56 -67 65 -165 7 -67 4
-95 -15 -171 -38 -148 -76 -207 -170 -259 -61 -35 -63 -35 -186 -35 -143 0
-186 10 -233 51 -19 16 -41 29 -50 29 -10 0 -14 4 -11 10 3 5 -5 25 -19 42
-32 43 -60 117 -76 201 -8 43 -17 67 -26 67 -8 0 -11 6 -8 15 4 8 1 15 -5 15
-6 0 -11 -13 -11 -30 0 -16 4 -30 8 -30 5 0 14 -11 20 -25 6 -14 8 -25 3 -25
-4 0 -8 -7 -8 -15 0 -8 3 -15 7 -15 3 0 5 -31 4 -69 -3 -89 10 -114 61 -122
l40 -5 -47 -8 c-50 -9 -63 -24 -28 -33 11 -3 20 -11 20 -18 0 -23 -12 -45 -21
-39 -5 3 -9 0 -9 -5 0 -15 -57 -14 -67 2 -11 18 -15 58 -7 76 12 26 10 36 -6
43 -12 5 -12 7 3 7 9 1 17 6 17 12 0 5 -4 7 -10 4 -5 -3 -16 -3 -22 2 -30 18
-35 10 -36 -50 -1 -33 -5 -64 -11 -70 -14 -14 -705 -21 -732 -7 -11 6 -24 23
-30 37 -9 24 -12 418 -9 1084 l1 286 85 -1 c77 -1 84 -3 84 -21 l1 -20 15 20
c8 11 14 33 12 50 -3 29 -4 29 -53 27 l-50 -3 52 46 c29 25 59 60 68 78 15 31
15 33 -6 50 -24 19 -54 15 -79 -10 -13 -13 -11 -14 17 -8 17 3 33 2 36 -2 7
-10 -19 -73 -30 -73 -4 0 -23 -14 -41 -31 -25 -23 -33 -38 -29 -55 4 -22 1
-24 -34 -24 -38 0 -39 1 -39 35 0 19 9 57 19 85 15 39 16 50 6 50 -8 0 -19 -8
-24 -17 -9 -15 -10 -12 -11 15 0 28 3 32 25 32 14 0 25 -5 25 -11 0 -6 8 -9
18 -7 9 2 17 10 17 18 0 11 -12 15 -45 15 l-45 0 3 135 c2 75 -1 172 -8 218
-12 80 -12 85 8 104 18 19 31 20 174 19 114 -1 156 -5 167 -15 10 -11 14 -66
17 -241 l3 -226 -29 6 c-21 5 -31 1 -42 -13 -7 -10 -23 -24 -35 -31 -19 -10
-21 -15 -12 -38 13 -34 26 -43 62 -43 15 0 27 -3 27 -7 -1 -31 -17 -57 -44
-69 -25 -11 -27 -13 -9 -14 12 0 32 13 46 29 l24 29 6 -106 c3 -59 7 -221 7
-361 1 -232 -1 -254 -17 -268 -13 -10 -14 -13 -3 -10 19 5 39 -119 28 -178
-10 -58 -10 -213 2 -234 16 -31 94 -54 158 -47 179 21 179 21 211 -11 16 -17
33 -46 36 -66 8 -41 18 -46 37 -18 7 10 22 20 33 23 18 3 20 12 20 71 0 37 -1
67 -3 67 -1 0 -6 -10 -11 -22 -7 -21 -8 -20 -13 10 -2 18 -1 32 4 32 4 0 5 20
1 45 -5 38 -3 45 11 45 9 0 16 5 16 11 0 5 -4 8 -9 5 -14 -9 -19 15 -13 67 l5
47 -39 1 c-21 1 -30 3 -19 6 11 2 30 6 41 8 12 3 24 12 28 20 4 11 2 14 -6 9
-8 -5 -10 25 -6 117 3 68 2 111 -2 94 -7 -28 -8 -27 -9 13 -1 37 -4 42 -23 42
-13 0 -30 5 -38 10 -11 7 -8 10 16 10 36 0 44 16 44 92 0 33 5 50 16 56 15 8
17 49 19 358 3 345 4 351 28 404 13 30 33 87 45 126 19 64 27 75 77 115 57 46
142 87 185 88 14 0 52 -6 85 -14z m3545 0 c30 -8 76 -15 101 -15 28 0 51 -6
59 -15 6 -7 36 -28 66 -45 46 -26 54 -34 54 -60 0 -16 11 -45 24 -65 31 -45
56 -154 56 -244 0 -60 -3 -74 -26 -100 -31 -38 -74 -47 -149 -31 -76 16 -99
49 -89 134 l6 58 -43 44 c-50 51 -75 55 -118 18 -62 -52 -63 -59 -58 -793 4
-432 9 -666 16 -679 15 -29 57 -52 95 -54 72 -3 116 56 116 154 0 29 3 77 6
105 7 52 8 53 48 64 53 14 141 7 164 -14 20 -18 37 -81 47 -168 11 -99 -44
-279 -108 -355 -14 -17 -53 -45 -85 -62 -59 -31 -62 -32 -193 -32 -144 0 -192
13 -233 59 -11 11 -29 21 -40 22 -12 0 -15 3 -9 6 9 3 4 16 -16 41 -34 44 -65
124 -82 210 -7 39 -17 62 -25 62 -8 0 -11 6 -7 17 4 11 3 14 -5 9 -16 -10 -15
-53 2 -59 14 -6 29 -47 17 -47 -4 0 -8 -7 -8 -15 0 -8 3 -15 6 -15 3 0 6 -36
6 -80 0 -89 6 -100 62 -110 l38 -7 -47 -7 c-54 -9 -59 -18 -23 -34 20 -9 23
-15 16 -34 -5 -13 -14 -22 -20 -20 -6 1 -11 -2 -11 -8 0 -14 -49 -12 -63 3
-11 11 -15 59 -7 80 7 20 4 33 -10 39 -12 5 -12 7 3 7 9 1 17 5 17 11 0 5 -7
7 -15 4 -8 -4 -15 -1 -15 6 0 7 -7 10 -15 6 -9 -3 -18 1 -21 8 -6 16 37 63 63
68 15 3 18 14 18 71 0 37 -1 67 -3 67 -1 0 -7 -10 -11 -22 -6 -16 -9 1 -8 55
1 55 5 77 14 77 7 0 13 5 13 11 0 5 -4 7 -10 4 -11 -7 -13 7 -10 73 1 41 1 42
-32 43 -34 1 -32 3 13 13 15 3 29 13 33 21 3 10 2 14 -5 9 -7 -4 -9 26 -6 100
2 59 0 109 -5 112 -4 3 -8 15 -8 28 0 17 -8 25 -37 33 l-38 10 38 2 37 1 0 70
c0 55 4 71 17 79 16 8 17 41 20 357 l2 348 30 70 c16 39 37 96 45 127 14 49
23 61 75 102 63 50 138 84 186 86 17 0 55 -6 85 -14z m-5565 -25 c3 -5 -1 -10
-10 -10 -9 0 -13 5 -10 10 3 6 8 10 10 10 2 0 7 -4 10 -10z m3130 -55 c9 -34
27 -86 41 -115 15 -32 24 -70 24 -101 0 -27 11 -77 24 -113 14 -36 28 -98 32
-138 4 -40 33 -185 66 -323 32 -137 72 -311 87 -385 16 -74 41 -160 55 -190
16 -34 26 -72 26 -101 0 -30 7 -55 19 -70 18 -24 25 -62 40 -219 4 -47 20
-132 35 -189 38 -139 41 -136 -144 -136 -93 0 -143 4 -151 12 -6 6 -15 47 -19
91 -5 44 -15 91 -24 104 -8 13 -21 58 -29 102 -8 43 -21 82 -27 86 -13 8 -136
14 -284 13 -104 0 -106 -2 -136 -103 -17 -59 -24 -94 -47 -245 -9 -57 8 -51
-167 -56 -72 -2 -81 0 -98 21 -10 12 -18 28 -18 35 0 8 24 110 54 227 30 117
63 263 75 323 34 179 58 286 116 509 57 215 124 461 132 484 4 9 -16 12 -79
12 -90 0 -126 -14 -115 -43 3 -9 2 -19 -2 -22 -14 -8 -18 34 -15 163 3 91 0
122 -9 122 -9 0 -9 2 -1 8 7 4 14 16 17 27 4 19 5 18 6 -2 0 -12 5 -24 11 -28
6 -4 6 -15 0 -31 -9 -22 -6 -26 18 -35 15 -7 22 -13 15 -16 -7 -3 -13 -10 -13
-16 0 -6 -7 -18 -16 -28 -15 -17 -14 -19 17 -28 22 -6 27 -10 14 -10 -14 -1
-21 -9 -23 -26 -2 -27 15 -33 48 -15 11 6 28 7 42 2 37 -14 108 -3 109 17 0
12 2 12 9 -4 9 -20 9 -20 9 1 1 11 7 26 14 33 10 11 10 14 0 18 -7 3 -13 11
-13 19 0 11 -18 12 -97 7 -72 -5 -94 -3 -89 5 4 7 32 12 66 12 51 0 61 3 71
22 8 14 14 18 17 10 6 -20 32 -14 32 8 0 11 -5 20 -12 20 -6 0 -1 9 12 20 13
11 19 20 13 20 -15 0 37 261 58 286 7 8 40 12 98 12 l89 0 17 -63z m-3447 32
c20 -15 14 -74 -13 -127 -23 -46 -25 -59 -25 -205 0 -147 -1 -159 -25 -203
-22 -42 -25 -58 -25 -160 0 -76 -5 -122 -14 -140 -7 -15 -16 -69 -20 -121 -8
-109 -30 -263 -45 -306 -5 -16 -12 -66 -16 -110 -3 -44 -12 -83 -18 -87 -7 -5
-8 -8 -2 -8 7 0 6 -27 -3 -82 -20 -123 -25 -226 -14 -288 15 -77 4 -86 -96
-82 -122 5 -173 6 -230 1 -68 -5 -82 11 -82 95 -1 34 -8 88 -17 121 -8 33 -19
116 -25 185 -5 69 -16 159 -24 200 -8 41 -26 152 -39 245 -13 94 -32 198 -42
231 -15 54 -15 67 -4 102 12 35 11 43 -3 63 -22 31 -20 62 4 84 11 10 18 20
15 23 -3 3 3 14 12 24 21 24 8 39 -44 47 l-38 6 -12 85 c-7 47 -17 126 -22
175 -6 50 -16 109 -22 132 -18 58 -7 66 100 82 84 13 92 12 123 -6 32 -19 33
-21 39 -104 6 -77 13 -117 55 -343 14 -73 14 -83 -2 -117 -19 -42 -14 -69 13
-69 23 0 63 -125 71 -217 4 -59 3 -63 -19 -72 -15 -6 -18 -10 -8 -10 12 -1 18
-14 23 -46 7 -58 22 -85 45 -85 39 0 51 31 56 151 3 63 12 157 20 209 8 52 22
138 30 191 8 53 15 115 15 137 0 22 4 52 10 67 15 41 31 153 31 226 0 70 7 82
57 108 16 9 33 9 62 1 30 -8 46 -7 72 4 33 14 73 11 96 -7z m5339 -2 c12 -16
13 -41 8 -130 -4 -68 -2 -144 5 -199 13 -93 3 -471 -10 -411 -14 66 -46 94
-90 80 -34 -11 -22 14 15 32 35 17 42 27 26 37 -11 7 -65 -41 -80 -71 -26 -51
-2 -135 41 -146 14 -4 38 1 60 13 l38 20 -2 -373 c-2 -204 1 -415 6 -468 6
-64 5 -117 -3 -160 -14 -82 -4 -219 15 -219 8 0 14 -5 14 -11 0 -6 -6 -9 -14
-6 -9 4 -16 -4 -20 -24 -4 -19 -12 -29 -24 -29 -10 0 -52 -12 -93 -26 -66 -23
-79 -24 -126 -14 l-51 11 5 877 c3 482 5 954 5 1048 l-1 171 27 11 c16 6 71
10 131 9 89 -2 105 -5 118 -22z m-1087 -18 c33 -16 149 -248 171 -343 9 -39
27 -90 39 -115 12 -24 31 -73 42 -109 38 -123 59 -150 114 -150 19 0 30 11 51
55 l27 55 -22 46 c-22 44 -23 62 -27 297 -5 304 -12 287 117 287 94 0 138 -14
154 -47 17 -38 19 -476 2 -534 -8 -28 -7 -60 5 -135 14 -85 19 -236 16 -454 0
-25 -2 -247 -4 -493 -4 -500 0 -479 -74 -494 -43 -8 -56 -7 -143 13 l-67 16
-15 46 c-8 26 -25 81 -36 122 -20 67 -71 195 -135 335 -12 28 -26 61 -30 75
-4 14 -15 36 -25 50 -9 14 -25 45 -34 70 -22 56 -33 70 -56 70 -25 0 -45 -62
-41 -130 2 -30 4 -194 5 -363 1 -264 -1 -309 -14 -317 -23 -15 -146 -12 -185
4 -63 26 -65 37 -53 256 6 107 10 296 8 420 -3 294 -3 344 0 670 1 151 1 327
0 390 -1 63 1 179 5 257 l7 142 37 15 c39 17 117 14 161 -7z m-10670 -81 c0
-2 -12 -11 -27 -20 l-28 -17 24 20 c23 21 31 25 31 17z m6657 -373 c-2 -16 -4
-3 -4 27 0 30 2 43 4 28 2 -16 2 -40 0 -55z m1103 -75 c0 -5 -6 -8 -14 -8 -15
0 -26 21 -26 48 0 13 5 11 20 -8 11 -14 20 -28 20 -32z m-2130 22 c10 -6 11
-10 3 -10 -7 0 -13 -9 -13 -21 0 -11 -4 -17 -10 -14 -12 7 -14 55 -2 55 4 0
14 -5 22 -10z m3740 -80 c0 -5 -4 -10 -10 -10 -5 0 -10 5 -10 10 0 6 5 10 10
10 6 0 10 -4 10 -10z m110 -10 c0 -5 -2 -10 -4 -10 -3 0 -8 5 -11 10 -3 6 -1
10 4 10 6 0 11 -4 11 -10z m-111 -104 c-5 -6 -8 12 -8 45 l2 54 7 -45 c4 -25
4 -49 -1 -54z m8 -48 c-3 -8 -6 -5 -6 6 -1 11 2 17 5 13 3 -3 4 -12 1 -19z
m13 -58 c0 -5 -4 -10 -10 -10 -5 0 -10 5 -10 10 0 6 5 10 10 10 6 0 10 -4 10
-10z m20 -77 c0 -20 -24 -11 -28 10 -2 12 1 15 12 11 9 -3 16 -13 16 -21z
m-1373 -105 c-3 -7 -5 -2 -5 12 0 14 2 19 5 13 2 -7 2 -19 0 -25z m110 -24
c-3 -3 -12 -4 -19 -1 -8 3 -5 6 6 6 11 1 17 -2 13 -5z m-27 -74 c0 -5 -5 -10
-11 -10 -5 0 -7 5 -4 10 3 6 8 10 11 10 2 0 4 -4 4 -10z m-1453 -112 c-3 -7
-5 -2 -5 12 0 14 2 19 5 13 2 -7 2 -19 0 -25z m1364 -275 c13 -16 12 -17 -3
-4 -10 7 -18 15 -18 17 0 8 8 3 21 -13z m194 -4 c-4 -6 -14 -8 -23 -4 -8 3
-19 0 -24 -7 -6 -10 -8 -8 -8 5 0 12 8 17 31 17 19 0 28 -4 24 -11z m71 -356
c-10 -26 -18 -8 -9 23 5 21 8 24 11 11 2 -10 1 -25 -2 -34z m3542 4 c-13 -26
-21 -15 -12 18 5 19 9 23 15 14 4 -7 3 -21 -3 -32z m-13791 -813 c-3 -3 -12
-4 -19 -1 -8 3 -5 6 6 6 11 1 17 -2 13 -5z m7380 -180 c-3 -3 -12 -4 -19 -1
-8 3 -5 6 6 6 11 1 17 -2 13 -5z m2667 -400 c12 -5 16 -19 16 -63 0 -31 11
-101 24 -156 16 -67 26 -147 30 -240 4 -96 12 -161 26 -205 11 -36 20 -83 20
-105 0 -22 10 -83 21 -135 23 -105 41 -274 39 -362 -1 -61 5 -72 20 -35 7 17
9 10 10 -33 0 -30 7 -84 16 -120 8 -36 19 -112 24 -170 5 -58 18 -132 29 -164
15 -41 21 -84 21 -140 0 -83 14 -156 30 -156 5 0 9 -18 8 -39 0 -35 -3 -40
-31 -45 -36 -7 -241 4 -257 14 -6 4 -16 25 -20 47 -8 32 -6 47 10 79 11 21 20
50 20 64 0 27 -34 90 -48 90 -5 0 -15 26 -22 57 -9 41 -22 67 -45 90 -29 29
-40 33 -84 33 -34 0 -51 -4 -52 -12 -4 -39 2 -399 7 -430 6 -39 36 -57 61 -36
7 6 13 8 13 5 0 -3 3 -12 6 -21 5 -14 -14 -16 -180 -16 -142 0 -186 -3 -187
-12 0 -10 -2 -10 -6 0 -2 6 -16 12 -29 12 -13 0 -24 5 -24 10 0 6 -15 10 -32
10 -18 0 -57 3 -85 6 l-53 7 0 41 c0 45 30 176 41 176 4 0 13 -7 20 -16 11
-13 10 -24 -4 -64 -9 -26 -17 -51 -17 -55 0 -16 89 68 100 95 16 39 8 58 -27
62 -19 2 -29 10 -34 28 l-6 25 -12 -29 c-6 -16 -13 -27 -15 -25 -7 7 32 252
53 336 12 45 21 113 21 153 0 71 70 555 90 620 10 33 35 170 114 633 21 125
37 192 46 198 16 11 303 5 334 -7z m-807 -100 c20 -31 33 -138 22 -179 -11
-39 -50 -71 -76 -61 -20 8 -33 -9 -33 -44 0 -14 -5 -32 -11 -40 -7 -11 -9 1
-6 44 l5 59 -77 -7 c-66 -6 -79 -10 -98 -34 -22 -26 -23 -34 -23 -245 0 -120
4 -216 8 -213 4 2 14 1 22 -5 12 -7 10 -9 -8 -9 -22 0 -23 -3 -17 -42 8 -50
24 -71 67 -89 27 -11 32 -10 43 4 7 9 18 17 25 17 10 0 10 -3 0 -15 -12 -14
-4 -16 65 -13 76 3 79 2 86 -22 4 -14 7 -58 8 -97 1 -60 -3 -77 -18 -92 -21
-21 -86 -35 -141 -29 -22 2 -39 -2 -47 -12 -11 -13 -12 -13 -13 3 0 24 -42 22
-66 -4 -17 -19 -19 -39 -19 -238 0 -213 9 -409 21 -464 10 -45 49 -58 171 -56
105 2 107 1 126 -25 15 -22 18 -38 15 -83 -8 -90 -2 -88 -296 -88 -191 0 -254
3 -264 13 -10 10 -14 89 -16 333 l-3 321 43 -7 c31 -4 39 -3 28 4 -8 6 -28 11
-43 11 l-28 0 2 698 c2 562 5 700 15 713 12 13 49 15 266 13 235 -1 253 -3
265 -20z m1693 -11 c2 -2 5 -48 5 -101 0 -53 4 -102 8 -109 4 -6 3 -14 -3 -18
-6 -4 -8 -11 -4 -16 10 -16 12 -59 3 -59 -5 0 -4 -12 1 -26 6 -14 8 -30 4 -35
-3 -5 2 -12 10 -15 19 -7 22 -89 5 -100 -8 -5 -10 1 -7 20 3 14 2 26 -3 26 -4
0 -5 -105 -2 -232 8 -349 6 -415 -11 -439 -12 -18 -12 -25 0 -55 8 -18 14 -66
14 -108 0 -61 -3 -77 -17 -85 -17 -10 -17 -10 1 -11 17 0 18 -7 12 -77 -4 -43
-2 -100 3 -128 l9 -50 1 50 c0 28 6 56 13 63 6 6 12 28 13 49 0 21 2 71 3 111
2 69 3 72 26 72 37 0 41 17 6 25 -26 6 -30 11 -31 43 -1 32 -2 34 -8 12 -6
-22 -8 -23 -14 -7 -4 11 -5 23 -2 27 10 17 15 321 6 339 -14 25 -3 59 21 67
11 3 35 3 54 -1 l34 -6 2 -562 c1 -309 3 -617 3 -684 0 -157 2 -155 -139 -161
-131 -6 -152 -1 -169 41 -25 60 -28 104 -11 228 14 105 15 146 5 264 -6 77
-13 409 -15 739 -2 329 -8 602 -13 607 -5 5 -59 15 -121 23 -62 8 -116 17
-121 20 -5 3 -8 60 -8 126 0 161 -15 152 237 144 107 -4 197 -9 200 -11z
m-3035 -9 c130 -5 162 -10 242 -36 86 -27 97 -34 146 -89 63 -69 167 -267 167
-317 0 -20 8 -39 20 -49 24 -20 27 -48 5 -39 -13 5 -15 -12 -15 -111 0 -111
-1 -118 -32 -171 -17 -30 -60 -86 -96 -123 l-64 -69 18 -27 c10 -16 48 -60 84
-98 37 -39 79 -90 95 -113 l28 -42 2 -231 3 -232 -33 -36 c-18 -20 -36 -52
-40 -71 -17 -82 -89 -165 -187 -217 -52 -27 -56 -28 -203 -25 -105 2 -178 -3
-243 -14 -106 -19 -126 -14 -158 39 -18 31 -19 53 -15 542 2 283 7 511 12 513
5 2 4 12 -1 22 -12 22 -18 898 -7 945 9 38 52 66 92 59 16 -2 97 -7 180 -10z
m3374 -51 c0 -85 -13 -200 -22 -210 -4 -4 -39 -6 -76 -5 -98 4 -104 -4 -97
-127 22 -357 21 -367 -32 -355 -66 15 -63 10 -61 88 1 47 -3 80 -12 94 -12 19
-12 24 -1 31 10 6 14 42 16 132 2 68 1 111 -1 94 -10 -68 -19 -39 -22 65 l-2
110 26 0 c14 0 25 6 25 14 0 7 9 25 21 40 22 28 22 61 1 61 -7 0 -17 7 -23 15
-8 11 -12 12 -16 3 -7 -18 -23 -16 -23 2 0 13 23 15 150 15 l150 0 -1 -67z
m-10895 -100 c-26 -19 -127 -49 -256 -76 l-107 -22 33 -82 c19 -45 57 -119 84
-165 45 -73 49 -84 36 -95 -34 -25 -69 4 -139 117 -80 130 -107 189 -101 216
11 41 83 73 227 100 72 13 154 30 182 37 45 12 52 12 56 -2 2 -8 -5 -21 -15
-28z m8253 -105 c-3 -8 -6 -5 -6 6 -1 11 2 17 5 13 3 -3 4 -12 1 -19z m-68
-63 c0 -5 -4 -3 -9 5 -5 8 -9 22 -9 30 0 16 17 -16 18 -35z m948 -62 c-3 -10
-5 -4 -5 12 0 17 2 24 5 18 2 -7 2 -21 0 -30z m-1002 -3 c3 -5 1 -10 -4 -10
-6 0 -11 5 -11 10 0 6 2 10 4 10 3 0 8 -4 11 -10z m625 -57 c0 -55 -13 -103
-26 -103 -17 0 -17 10 -2 77 13 57 28 70 28 26z m-105 -43 c3 -5 1 -10 -4 -10
-6 0 -11 5 -11 10 0 6 2 10 4 10 3 0 8 -4 11 -10z m85 -116 c0 -14 -4 -22 -10
-19 -5 3 -10 17 -10 31 0 14 4 22 10 19 6 -3 10 -17 10 -31z m-107 -1 c-7 -2
-19 -2 -25 0 -7 3 -2 5 12 5 14 0 19 -2 13 -5z m-8729 -48 l17 -25 137 6 c150
7 210 -2 250 -39 45 -42 28 -65 -154 -203 -110 -84 -115 -90 -110 -118 6 -28
5 -28 -12 -13 -24 22 -26 22 -77 -13 -52 -36 -183 -100 -204 -100 -23 0 54 74
146 141 l82 60 -20 52 c-12 29 -31 78 -43 111 l-21 59 -74 -7 c-41 -3 -76 -8
-79 -11 -3 -2 1 -12 9 -21 13 -16 10 -17 -34 -12 -26 3 -51 9 -54 12 -22 21
96 76 164 76 29 0 56 28 50 51 -7 27 8 23 27 -6z m8780 -2 c-6 -25 -24 -56
-24 -41 0 10 22 68 26 68 2 0 1 -12 -2 -27z m38 -77 c-5 -53 -22 -60 -39 -16
-6 17 -7 28 -2 24 5 -3 14 7 19 21 15 39 26 23 22 -29z m-489 -86 c-3 -11 -7
-20 -9 -20 -2 0 -4 9 -4 20 0 11 4 20 9 20 5 0 7 -9 4 -20z m-7917 -239 c83
-38 161 -174 138 -240 -16 -46 -33 -30 -54 49 -17 65 -115 160 -164 160 -26 0
-40 -7 -56 -27 -29 -37 -23 -72 30 -182 51 -107 61 -170 32 -199 -57 -57 -158
-49 -236 19 -79 70 -98 159 -45 215 40 43 53 32 45 -36 -6 -52 -4 -66 15 -100
32 -57 89 -94 147 -94 44 -1 47 1 50 26 3 28 -4 44 -81 191 -26 48 -47 98 -47
111 0 51 95 126 160 126 14 0 43 -9 66 -19z m8346 -106 c6 -30 -1 -75 -12 -75
-11 0 -18 45 -12 75 2 14 8 25 12 25 4 0 10 -11 12 -25z m1248 -9 c0 -3 -4 -8
-10 -11 -5 -3 -10 -1 -10 4 0 6 5 11 10 11 6 0 10 -2 10 -4z m-9334 -249 c48
-54 113 -161 120 -196 l7 -33 -32 16 c-17 9 -55 45 -83 80 l-53 64 -43 -31
c-69 -50 -69 -47 8 -137 89 -103 113 -155 68 -148 -13 2 -56 42 -106 100 l-84
97 -55 -41 -55 -42 28 -23 c16 -13 83 -61 149 -106 l120 -82 -38 -3 c-45 -4
-164 52 -262 122 -54 39 -60 46 -58 77 1 34 29 66 106 126 25 19 26 24 15 42
-17 27 -3 37 33 24 27 -11 35 -8 83 25 50 34 53 39 49 70 -5 30 -4 32 25 32
21 0 38 -9 58 -33z m9009 -322 c0 -11 -7 -21 -16 -23 -18 -3 -33 23 -23 39 10
17 39 5 39 -16z m-8747 -57 c78 -44 155 -124 171 -177 12 -43 12 -44 -16 -67
-35 -29 -113 -54 -170 -54 -24 0 -43 -2 -43 -5 0 -2 20 -44 44 -92 24 -48 49
-110 55 -137 10 -42 10 -51 -5 -67 -27 -30 -39 -23 -52 29 -7 26 -35 93 -62
149 -41 87 -54 105 -84 120 -19 9 -33 20 -30 24 8 14 76 30 159 39 78 8 165
34 165 50 0 9 -86 75 -141 108 l-36 22 -116 -138 c-64 -75 -125 -148 -137
-162 l-20 -25 18 40 c48 108 106 190 180 256 l49 44 -45 25 c-51 28 -62 46
-35 53 35 10 98 -5 151 -35z m4327 -128 c-3 -5 -16 -15 -28 -21 -19 -9 -19 -8
3 10 28 23 34 26 25 11z m4545 -284 c0 -11 -19 -15 -25 -6 -3 5 1 10 9 10 9 0
16 -2 16 -4z m190 -96 c0 -5 -9 -10 -20 -10 -11 0 -20 5 -20 10 0 6 9 10 20
10 11 0 20 -4 20 -10z m77 4 c-3 -3 -12 -4 -19 -1 -8 3 -5 6 6 6 11 1 17 -2
13 -5z m-147 -14 c0 -5 -17 -10 -37 -10 -21 0 -48 -3 -60 -6 -13 -4 -23 -2
-23 4 0 10 26 15 98 20 12 1 22 -2 22 -8z m-130 -10 c0 -5 -7 -10 -15 -10 -8
0 -15 5 -15 10 0 6 7 10 15 10 8 0 15 -4 15 -10z m-7970 -147 c102 -33 240
-116 240 -144 0 -17 -58 -9 -101 15 -62 34 -89 41 -89 23 0 -20 -169 -356
-170 -336 0 32 51 163 100 257 28 52 47 99 43 103 -7 6 -132 39 -205 54 -66
13 -3 67 67 58 22 -3 74 -16 115 -30z m580 -79 c6 -14 10 -103 10 -199 0 -165
1 -174 20 -180 25 -8 26 -25 1 -25 -24 0 -31 -19 -31 -78 0 -47 -32 -197 -44
-209 -16 -16 -21 20 -22 155 l0 147 -85 28 c-46 15 -99 29 -118 30 -31 2 -36
-2 -67 -58 -32 -57 -33 -60 -13 -65 19 -5 18 -7 -12 -38 -18 -18 -37 -31 -43
-29 -20 7 -6 78 29 148 l35 68 -27 20 -26 21 39 0 c38 0 41 2 98 89 63 96 135
177 170 191 43 18 76 12 86 -16z m449 -199 c18 -9 41 -25 52 -36 18 -18 18
-21 3 -44 -21 -32 -29 -31 -71 5 -58 51 -154 32 -221 -44 -27 -30 -32 -45 -32
-85 0 -85 67 -156 146 -156 40 0 50 5 85 42 21 23 39 46 39 52 0 5 -42 11 -94
13 -52 1 -98 6 -102 11 -4 4 -1 15 8 23 25 25 257 25 321 0 66 -26 60 -39 -17
-31 -73 8 -72 10 -82 -89 -4 -39 -2 -84 6 -116 8 -35 9 -55 2 -62 -16 -16 -40
29 -47 88 l-7 50 -46 -23 c-165 -84 -308 80 -247 285 18 59 74 114 133 131 49
13 132 7 171 -14z m808 -237 c-3 -8 -6 -5 -6 6 -1 11 2 17 5 13 3 -3 4 -12 1
-19z"/>
<path d="M5221 8184 c0 -11 3 -14 6 -6 3 7 2 16 -1 19 -3 4 -6 -2 -5 -13z"/>
<path d="M5377 7930 c-3 -11 -2 -22 2 -24 3 -2 76 -9 161 -16 280 -20 532 -68
760 -145 57 -19 105 -33 107 -31 6 5 -181 72 -312 111 -146 44 -375 90 -515
105 -58 6 -126 13 -151 15 -41 5 -47 3 -52 -15z"/>
<path d="M5066 7809 c-602 -63 -1171 -299 -1646 -682 -135 -109 -370 -353
-477 -497 -325 -436 -514 -889 -598 -1430 -13 -86 -14 -88 -9 -25 25 354 184
847 379 1183 20 34 34 62 32 62 -15 0 -155 -263 -218 -409 -149 -341 -226
-667 -255 -1077 l-6 -92 49 -6 c26 -3 120 -8 208 -11 193 -7 265 -14 265 -25
0 -5 -16 -12 -36 -16 l-37 -7 32 -13 c17 -7 31 -18 31 -23 0 -12 -52 -41 -74
-41 -8 0 -16 -4 -18 -10 -8 -24 -124 -41 -268 -39 l-145 2 3 -59 c17 -374 125
-791 295 -1145 64 -132 202 -345 320 -491 90 -113 295 -323 397 -409 40 -33
14 -3 -70 81 -466 465 -758 1035 -865 1687 -9 57 -15 108 -13 115 2 6 10 -29
17 -78 8 -49 31 -156 51 -239 273 -1086 1126 -1937 2215 -2209 183 -46 466
-86 610 -86 l50 0 -3 185 c-4 186 3 253 34 324 46 107 55 115 76 63 l11 -27
10 33 c5 17 14 32 18 32 9 0 10 -6 14 -110 1 -36 7 -155 14 -265 6 -110 11
-206 11 -212 0 -17 32 -16 185 6 638 94 1206 371 1672 814 479 457 803 1082
903 1740 10 67 19 109 19 92 1 -49 -36 -282 -64 -400 -58 -245 -147 -485 -260
-702 -35 -68 -62 -123 -60 -123 7 0 107 182 150 274 162 345 248 666 289 1074
l5 52 -42 2 c-23 0 -48 1 -55 1 -8 -1 -122 5 -254 13 -132 8 -243 12 -247 9
-5 -2 -25 1 -47 7 l-39 11 40 13 40 12 -33 12 c-18 7 -31 17 -29 23 2 7 39 27
83 47 l79 35 253 0 252 0 0 101 c0 433 -150 995 -360 1349 -151 253 -381 538
-558 691 -60 52 -56 47 33 -46 336 -351 564 -744 710 -1224 37 -125 95 -393
94 -436 0 -14 -9 16 -19 65 -100 494 -305 940 -610 1325 -98 124 -349 377
-470 474 -321 257 -715 458 -1110 566 -169 46 -491 100 -598 100 l-37 0 3
-187 c4 -189 -4 -258 -34 -325 -44 -97 -53 -103 -70 -48 l-12 35 -13 -45 -13
-44 -8 34 c-3 19 -10 98 -13 175 -4 77 -10 189 -14 249 -4 59 -6 119 -3 132 5
27 -1 28 -142 13z m957 -1660 c72 -14 350 -12 341 3 -5 8 62 10 275 5 156 -3
285 -8 287 -10 3 -2 -78 -135 -178 -296 -101 -160 -237 -377 -302 -483 -188
-305 -363 -572 -387 -594 -31 -27 7 41 199 351 86 138 230 372 322 520 92 149
194 314 229 369 34 54 60 101 57 104 -9 8 -3206 16 -3206 8 0 -4 13 -26 29
-49 15 -23 50 -78 78 -122 148 -239 393 -616 522 -804 80 -118 171 -254 202
-303 44 -69 58 -85 69 -75 10 10 11 8 6 -10 -8 -26 -89 -150 -240 -368 -61
-88 -233 -351 -383 -585 l-272 -425 987 -2 c543 -2 1267 1 1609 5 l622 7 -93
150 c-653 1049 -755 1218 -726 1200 17 -11 151 -215 360 -550 179 -288 474
-759 509 -814 l15 -23 -480 0 c-2225 1 -2837 2 -2841 6 -10 10 696 1095 861
1321 l44 60 -61 85 c-157 221 -363 530 -604 908 -145 227 -263 415 -263 417 0
2 318 4 706 4 389 0 709 3 712 6 10 10 941 -5 995 -16z m657 -79 c0 -5 16 -10
35 -10 19 0 35 -4 35 -9 0 -5 -100 -163 -221 -352 -228 -354 -242 -378 -219
-364 8 5 3 -9 -10 -31 -31 -52 -49 -69 -21 -20 38 67 15 50 -30 -23 -24 -38
-50 -69 -58 -68 -8 1 -16 -4 -19 -12 -3 -9 0 -11 8 -6 9 6 9 3 0 -14 -6 -12
-15 -19 -19 -16 -5 2 -20 -13 -35 -35 -30 -46 -33 -58 -9 -39 21 17 24 22 -84
-144 -59 -90 -82 -135 -78 -148 4 -13 2 -18 -7 -16 -7 2 -10 2 -5 0 4 -3 7 -9
7 -14 0 -8 70 -121 179 -289 10 -14 11 -21 4 -17 -19 12 -16 -1 8 -39 11 -19
25 -32 29 -29 5 3 14 -4 20 -16 9 -17 9 -20 0 -14 -8 5 -11 3 -8 -6 3 -8 11
-14 18 -14 12 0 107 -142 487 -732 l83 -128 -53 -4 c-37 -2 -46 -5 -32 -11 31
-12 -418 -23 -625 -16 -102 3 -533 6 -958 7 -425 0 -770 3 -768 7 2 4 -119 6
-271 4 l-275 -4 58 88 c31 49 73 114 92 144 19 30 129 199 243 375 184 284
210 320 233 320 14 0 26 -1 26 -3 0 -21 -121 -215 -384 -616 -86 -131 -156
-242 -156 -247 0 -5 606 -9 1400 -9 l1400 0 -57 93 c-31 50 -135 215 -230 365
-95 149 -173 275 -173 278 0 3 5 2 12 -2 7 -4 8 -3 4 5 -4 6 -11 9 -15 6 -8
-4 -211 307 -211 322 0 5 7 -1 15 -11 8 -11 15 -15 15 -9 0 12 -19 28 -33 28
-5 0 -32 37 -61 83 l-53 83 -17 -25 c-22 -35 -20 -46 4 -17 26 30 26 19 1 -17
-40 -56 -222 -345 -240 -381 -11 -21 -35 -56 -53 -79 -18 -23 -44 -56 -57 -73
-16 -20 -26 -27 -31 -19 -5 8 -9 7 -13 -5 -4 -9 -3 -13 3 -10 17 10 11 -5 -20
-60 -36 -63 -55 -81 -66 -64 -5 8 -3 9 5 5 8 -5 11 -3 10 5 -3 19 11 50 21 44
4 -2 6 9 4 26 -2 18 1 32 9 35 8 3 14 10 14 17 0 37 373 603 385 584 5 -7 7
-3 6 13 -2 16 2 24 10 22 22 -4 -10 56 -99 187 -126 183 -289 451 -289 473 0
12 -4 17 -12 12 -8 -5 -9 -2 -5 9 3 9 2 19 -4 23 -6 3 -8 12 -5 20 3 9 0 11
-12 7 -14 -6 -15 -4 -5 8 8 10 9 19 1 29 -8 12 -9 12 -4 -2 7 -23 -1 -23 -13
0 -8 14 -6 19 5 19 16 0 67 -70 79 -107 5 -17 4 -20 -5 -15 -9 5 -11 4 -6 -4
4 -6 11 -9 16 -6 10 6 70 -64 70 -81 0 -7 6 -14 14 -17 8 -3 27 -27 42 -54 15
-26 78 -127 139 -223 61 -96 115 -182 119 -190 8 -17 -20 13 -47 51 -13 17
-12 13 2 -12 23 -41 26 -53 10 -43 -8 4 -8 0 0 -15 14 -25 23 -28 14 -3 -6 14
-4 15 8 5 12 -10 38 25 158 212 80 123 148 222 152 219 4 -2 11 1 15 7 5 8 3
9 -6 4 -8 -5 -11 -3 -8 6 3 8 11 13 17 11 7 -1 10 2 6 7 -3 6 84 151 193 323
191 301 252 400 252 409 0 2 -630 3 -1400 1 -770 -1 -1400 -4 -1400 -6 0 -2
85 -134 188 -293 261 -398 352 -545 352 -565 0 -2 -12 -3 -26 -3 -22 0 -45 30
-188 250 -265 407 -416 643 -422 659 -5 14 84 16 897 16 496 0 905 2 907 5 10
10 1092 5 1092 -5z m-2280 -125 c47 0 556 4 1133 9 576 5 1047 6 1047 2 0 -12
-278 -422 -296 -437 -21 -18 26 77 110 219 35 59 71 122 81 141 l17 34 -74 -7
c-113 -9 -2267 -11 -2322 -2 l-49 9 23 -39 c13 -22 80 -124 149 -228 69 -105
222 -340 340 -523 l214 -334 20 33 c110 181 243 358 271 358 7 0 18 12 25 26
6 15 15 24 18 20 3 -3 12 3 20 14 8 11 19 20 24 20 5 0 -12 -26 -38 -58 -96
-115 -313 -435 -313 -461 0 -20 205 -316 306 -443 57 -71 104 -133 104 -136 0
-4 -10 7 -22 23 -12 17 -42 50 -67 75 -25 25 -45 50 -46 55 0 6 -10 11 -23 13
-32 5 -145 149 -245 316 l-34 56 -55 -88 c-179 -284 -321 -504 -356 -553 -51
-69 -281 -424 -289 -446 -5 -13 0 -14 38 -7 47 9 2287 7 2352 -2 21 -4 37 -2
37 4 0 6 -39 77 -86 158 -47 82 -97 171 -110 199 l-25 50 31 -35 c17 -19 89
-123 161 -230 l130 -195 -78 -3 c-43 -2 -555 1 -1138 7 -742 7 -1108 7 -1223
0 -90 -6 -166 -9 -169 -6 -7 7 90 162 381 609 308 475 366 566 366 580 0 16
-54 103 -350 558 -152 234 -294 454 -315 490 -21 36 -49 79 -61 95 -12 17 -27
40 -33 53 l-12 23 173 -8 c95 -4 211 -8 258 -8z m939 -434 c-33 -51 -63 -90
-66 -87 -3 2 9 25 26 50 17 24 31 51 31 58 1 18 25 48 39 48 7 0 9 5 5 12 -5
7 -3 8 6 3 10 -6 12 -4 6 11 -5 13 -4 16 4 8 7 -7 -8 -37 -51 -103z m-135
-196 c-20 -25 -39 -45 -42 -45 -5 0 8 17 52 68 35 40 28 23 -10 -23z m3033
-102 c-3 -10 -5 -2 -5 17 0 19 2 27 5 18 2 -10 2 -26 0 -35z m10 -70 c-3 -10
-5 -4 -5 12 0 17 2 24 5 18 2 -7 2 -21 0 -30z m-5920 -115 c-2 -13 -4 -5 -4
17 -1 22 1 32 4 23 2 -10 2 -28 0 -40z m5930 -470 c-2 -13 -4 -3 -4 22 0 25 2
35 4 23 2 -13 2 -33 0 -45z m-5920 -85 c-3 -10 -5 -2 -5 17 0 19 2 27 5 18 2
-10 2 -26 0 -35z m3972 -258 c13 -22 15 -31 6 -20 -18 22 -53 86 -38 70 6 -5
20 -28 32 -50z m-954 -277 c4 -20 4 -20 -15 -3 -11 10 -20 25 -20 34 0 9 -14
36 -30 61 -16 25 -30 49 -30 55 0 16 91 -124 95 -147z m28 -23 c-3 -9 -8 -14
-10 -11 -3 3 -2 9 2 15 9 16 15 13 8 -4z"/>
<path d="M3920 6049 c-115 -5 -115 -5 49 -7 90 -1 162 0 160 2 -9 8 -101 11
-209 5z"/>
<path d="M4273 6053 c9 -2 25 -2 35 0 9 3 1 5 -18 5 -19 0 -27 -2 -17 -5z"/>
<path d="M4183 6043 c15 -2 37 -2 50 0 12 2 0 4 -28 4 -27 0 -38 -2 -22 -4z"/>
<path d="M3845 5986 c10 -14 19 -26 22 -26 7 0 -17 39 -28 46 -6 3 -3 -5 6
-20z"/>
<path d="M4002 5740 c14 -22 24 -19 15 5 -4 8 -11 15 -17 15 -6 0 -6 -7 2 -20z"/>
<path d="M4116 5568 c20 -32 39 -58 41 -58 7 0 -29 58 -55 88 -13 15 -6 1 14
-30z"/>
<path d="M4189 5453 c12 -24 31 -39 31 -25 0 5 -10 17 -21 28 -22 19 -22 19
-10 -3z"/>
<path d="M6057 5001 c-20 -32 -37 -62 -37 -67 0 -5 18 20 41 55 22 35 39 65
37 67 -2 1 -20 -23 -41 -55z"/>
<path d="M5856 4691 c-4 -6 -2 -11 4 -11 6 0 -1 -20 -16 -45 -32 -56 -26 -59
10 -5 19 29 24 45 18 57 -6 11 -11 12 -16 4z"/>
<path d="M6060 4537 c0 -9 51 -87 57 -87 5 0 -35 69 -49 85 -4 5 -8 6 -8 2z"/>
<path d="M4215 4074 c-9 -15 -12 -23 -6 -20 11 7 35 46 28 46 -3 0 -12 -12
-22 -26z"/>
<path d="M4158 3988 c-63 -96 -70 -108 -65 -108 2 0 24 30 49 68 53 80 61 92
55 92 -2 0 -20 -24 -39 -52z"/>
<path d="M4005 3753 l-17 -28 23 22 c12 12 20 25 17 28 -3 3 -13 -7 -23 -22z"/>
<path d="M3871 3544 c-12 -20 -20 -38 -18 -40 2 -2 14 14 26 36 28 50 21 53
-8 4z"/>
<path d="M3830 3468 c0 -5 73 -8 162 -8 89 0 158 3 154 7 -9 9 -316 10 -316 1z"/>
<path d="M4185 3470 c-18 -8 -17 -9 7 -9 15 -1 30 4 33 9 7 12 -12 12 -40 0z"/>
<path d="M4358 3453 c6 -2 18 -2 25 0 6 3 1 5 -13 5 -14 0 -19 -2 -12 -5z"/>
<path d="M4868 3453 c7 -3 16 -2 19 1 4 3 -2 6 -13 5 -11 0 -14 -3 -6 -6z"/>
<path d="M5858 3453 c7 -3 16 -2 19 1 4 3 -2 6 -13 5 -11 0 -14 -3 -6 -6z"/>
<path d="M6430 7700 c8 -5 20 -10 25 -10 6 0 3 5 -5 10 -8 5 -19 10 -25 10 -5
0 -3 -5 5 -10z"/>
<path d="M3700 7417 c-463 -277 -822 -630 -1080 -1063 -130 -218 -199 -368
-281 -612 -82 -244 -131 -520 -127 -727 l1 -80 8 88 c64 725 401 1432 920
1932 173 167 399 346 578 460 78 49 101 66 89 65 -2 0 -50 -29 -108 -63z"/>
<path d="M2780 6480 c-6 -11 -8 -20 -6 -20 3 0 10 9 16 20 6 11 8 20 6 20 -3
0 -10 -9 -16 -20z"/>
<path d="M2550 6320 c-6 -11 -8 -20 -6 -20 3 0 10 9 16 20 6 11 8 20 6 20 -3
0 -10 -9 -16 -20z"/>
<path d="M1728 4823 c6 -2 18 -2 25 0 6 3 1 5 -13 5 -14 0 -19 -2 -12 -5z"/>
<path d="M1808 4813 c7 -3 16 -2 19 1 4 3 -2 6 -13 5 -11 0 -14 -3 -6 -6z"/>
<path d="M8598 4693 c7 -3 16 -2 19 1 4 3 -2 6 -13 5 -11 0 -14 -3 -6 -6z"/>
<path d="M8720 4680 c30 -4 64 -3 75 1 12 5 -10 7 -55 7 l-75 -1 55 -7z"/>
<path d="M8365 4648 c-2 -7 -6 -47 -10 -88 -4 -41 -18 -136 -31 -210 -129
-710 -485 -1325 -1044 -1806 -158 -136 -233 -194 -360 -279 -136 -91 -145 -99
-65 -55 381 211 759 563 1021 950 283 419 443 840 483 1270 18 200 20 261 6
218z"/>
<path d="M8010 3300 c-6 -11 -8 -20 -6 -20 3 0 10 9 16 20 6 11 8 20 6 20 -3
0 -10 -9 -16 -20z"/>
<path d="M7840 3240 c-6 -11 -8 -20 -6 -20 3 0 10 9 16 20 6 11 8 20 6 20 -3
0 -10 -9 -16 -20z"/>
<path d="M4385 1855 c279 -102 888 -195 909 -139 3 9 4 20 0 25 -3 5 -65 9
-137 9 -213 0 -466 34 -682 91 -156 41 -169 43 -90 14z"/>
<path d="M5441 1454 c0 -11 3 -14 6 -6 3 7 2 16 -1 19 -3 4 -6 -2 -5 -13z"/>
<path d="M10180 7286 c-6 -16 -6 -34 -2 -43 7 -11 11 -5 15 23 8 46 1 56 -13
20z"/>
<path d="M10051 6634 c0 -11 3 -14 6 -6 3 7 2 16 -1 19 -3 4 -6 -2 -5 -13z"/>
<path d="M10131 5890 c0 -8 4 -24 9 -35 l9 -20 0 20 c0 11 -4 27 -9 35 -9 13
-10 13 -9 0z"/>
<path d="M10133 5790 c0 -25 2 -35 4 -22 2 12 2 32 0 45 -2 12 -4 2 -4 -23z"/>
<path d="M11105 7160 c3 -5 8 -10 11 -10 2 0 4 5 4 10 0 6 -5 10 -11 10 -5 0
-7 -4 -4 -10z"/>
<path d="M11035 7000 c-3 -5 -1 -10 4 -10 6 0 11 5 11 10 0 6 -2 10 -4 10 -3
0 -8 -4 -11 -10z"/>
<path d="M11972 6540 c0 -19 2 -27 5 -17 2 9 2 25 0 35 -3 9 -5 1 -5 -18z"/>
<path d="M11971 6390 c-1 -88 0 -93 16 -78 13 14 14 20 4 32 -8 10 -11 33 -9
59 3 24 1 52 -3 63 -4 11 -8 -21 -8 -76z"/>
<path d="M12012 6463 c2 -10 10 -18 18 -18 22 0 18 29 -3 33 -14 3 -18 -1 -15
-15z"/>
<path d="M11821 6144 c0 -11 3 -14 6 -6 3 7 2 16 -1 19 -3 4 -6 -2 -5 -13z"/>
<path d="M12092 6149 c2 -6 8 -10 13 -10 5 0 11 4 13 10 2 6 -4 11 -13 11 -9
0 -15 -5 -13 -11z"/>
<path d="M10985 6119 c-4 -6 -5 -13 -2 -16 7 -7 27 6 27 18 0 12 -17 12 -25
-2z"/>
<path d="M11966 6113 c-10 -10 -7 -63 4 -63 6 0 10 -12 10 -27 0 -22 -2 -25
-10 -13 -7 11 -10 -4 -10 -50 0 -78 9 -118 21 -98 11 17 12 61 1 54 -4 -2 -9
13 -9 35 -2 37 -1 39 24 33 l25 -7 -17 27 c-10 15 -15 29 -11 33 3 4 -1 15
-11 25 -9 11 -11 18 -5 18 14 0 16 26 3 34 -4 3 -11 3 -15 -1z"/>
<path d="M11276 5993 c-11 -11 -6 -23 9 -23 8 0 15 4 15 9 0 13 -16 22 -24 14z"/>
<path d="M11970 5798 c0 -19 2 -20 10 -8 13 19 13 30 0 30 -5 0 -10 -10 -10
-22z"/>
<path d="M11971 5733 c1 -23 3 -29 6 -15 2 12 9 20 14 17 14 -9 11 5 -6 21
-13 14 -15 11 -14 -23z"/>
<path d="M11970 5647 c0 -15 4 -27 8 -27 10 0 9 36 -1 46 -4 4 -7 -5 -7 -19z"/>
<path d="M11356 5512 c-3 -3 -3 -9 0 -13 7 -12 54 -12 54 0 0 10 -47 21 -54
13z"/>
<path d="M11268 5493 c7 -3 16 -2 19 1 4 3 -2 6 -13 5 -11 0 -14 -3 -6 -6z"/>
<path d="M15512 6540 c0 -19 2 -27 5 -17 2 9 2 25 0 35 -3 9 -5 1 -5 -18z"/>
<path d="M15511 6390 c-1 -88 0 -93 16 -78 13 14 14 20 4 32 -14 17 -12 96 3
96 7 0 7 3 0 8 -6 4 -14 14 -17 22 -3 8 -6 -28 -6 -80z"/>
<path d="M15552 6463 c2 -10 10 -18 18 -18 22 0 18 29 -3 33 -14 3 -18 -1 -15
-15z"/>
<path d="M15361 6144 c0 -11 3 -14 6 -6 3 7 2 16 -1 19 -3 4 -6 -2 -5 -13z"/>
<path d="M15632 6149 c2 -6 8 -10 13 -10 5 0 11 4 13 10 2 6 -4 11 -13 11 -9
0 -15 -5 -13 -11z"/>
<path d="M15507 6114 c-11 -11 -8 -64 3 -64 6 0 10 -12 10 -27 0 -22 -2 -25
-10 -13 -12 18 -13 -114 -1 -144 7 -18 9 -16 19 14 15 41 15 40 0 40 -8 0 -14
15 -15 35 -1 33 0 35 25 28 l26 -6 -17 27 c-10 14 -15 30 -13 35 3 5 -1 15
-10 22 -15 12 -15 14 0 19 14 5 14 8 3 23 -7 10 -16 15 -20 11z"/>
<path d="M15510 5799 c0 -18 2 -19 15 -5 8 8 15 17 15 20 0 3 -7 6 -15 6 -9 0
-15 -9 -15 -21z"/>
<path d="M15511 5733 c1 -23 3 -29 6 -15 2 12 9 20 14 17 14 -9 11 5 -6 21
-13 14 -15 11 -14 -23z"/>
<path d="M15510 5645 c0 -33 15 -33 16 0 1 14 -2 25 -7 25 -5 0 -9 -11 -9 -25z"/>
<path d="M13048 6990 c-7 -24 -3 -38 8 -28 3 4 4 17 2 30 l-3 23 -7 -25z"/>
<path d="M13056 6933 c-3 -10 -3 -31 0 -46 3 -18 1 -26 -6 -22 -5 3 -18 1 -27
-4 -15 -8 -15 -11 -3 -12 8 -1 18 -1 22 0 5 0 2 -162 -4 -229 0 -3 0 -14 1
-24 1 -20 1 -20 17 0 15 18 15 18 10 -6 -3 -14 -6 -46 -6 -72 0 -39 -3 -48
-17 -48 -23 -1 -77 -55 -69 -69 4 -6 13 -8 20 -5 8 3 17 1 20 -5 4 -6 13 -8
21 -4 8 3 15 0 15 -6 0 -6 -4 -11 -10 -11 -6 0 -6 -9 0 -25 7 -18 6 -25 -3
-25 -9 0 -11 -13 -9 -40 4 -36 8 -42 34 -47 24 -5 29 -10 23 -27 -20 -70 -27
-137 -15 -151 15 -18 91 -20 121 -4 14 7 35 7 70 0 81 -18 97 -2 106 109 4 50
-2 97 -25 200 -16 74 -33 173 -36 219 -4 46 -11 92 -17 102 -25 47 -80 1 -98
-82 -5 -24 -19 -88 -31 -141 -12 -54 -25 -100 -29 -102 -15 -9 -42 24 -42 51
1 15 1 35 2 43 0 8 -2 44 -5 80 -2 36 -5 145 -5 243 -1 102 -5 177 -10 177 -5
0 -12 -8 -15 -17z m11 -300 c-3 -10 -5 -2 -5 17 0 19 2 27 5 18 2 -10 2 -26 0
-35z m0 -255 c-3 -8 -6 -5 -6 6 -1 11 2 17 5 13 3 -3 4 -12 1 -19z m53 -63 c0
-9 -6 -12 -15 -9 -8 4 -15 10 -15 15 0 5 7 9 15 9 8 0 15 -7 15 -15z"/>
<path d="M13020 6515 c-7 -9 -8 -15 -2 -15 5 0 12 7 16 15 3 8 4 15 2 15 -2 0
-9 -7 -16 -15z"/>
<path d="M12970 6350 c0 -5 5 -10 10 -10 6 0 10 5 10 10 0 6 -4 10 -10 10 -5
0 -10 -4 -10 -10z"/>
<path d="M9095 7110 c3 -5 8 -10 11 -10 2 0 4 5 4 10 0 6 -5 10 -11 10 -5 0
-7 -4 -4 -10z"/>
<path d="M9210 6990 c-8 -16 -7 -26 5 -42 19 -28 20 -49 1 -42 -7 3 -18 20
-23 37 -8 26 -12 29 -18 14 -12 -28 20 -67 55 -67 25 0 30 -4 30 -23 0 -28
-28 -57 -55 -57 -14 0 -16 -3 -8 -11 17 -17 68 15 83 51 7 17 13 50 13 73 0
23 4 45 10 48 5 4 7 14 4 23 -10 25 -83 22 -97 -4z"/>
<path d="M9345 6710 c-3 -5 -1 -10 4 -10 6 0 11 5 11 10 0 6 -2 10 -4 10 -3 0
-8 -4 -11 -10z"/>
<path d="M9600 6114 c0 -14 3 -14 15 -4 8 7 15 14 15 16 0 2 -7 4 -15 4 -8 0
-15 -7 -15 -16z"/>
<path d="M14732 6614 c-2 -63 -6 -83 -17 -88 -11 -4 -15 -22 -15 -75 l0 -70
-32 -4 -33 -3 33 -8 c29 -8 32 -12 33 -50 l2 -41 7 35 c3 19 5 -28 4 -105 l-3
-140 -38 -6 c-36 -6 -36 -6 -8 -9 17 -1 34 -2 38 -1 5 1 7 -19 6 -44 -2 -25 2
-50 9 -57 16 -16 15 -28 0 -28 -9 0 -13 -23 -14 -78 -2 -78 13 -76 16 3 2 34
3 36 9 15 16 -57 21 9 16 201 -4 153 -2 204 7 210 9 6 9 13 0 34 -18 40 -16
114 5 122 14 6 14 7 -4 14 -18 6 -20 13 -14 46 4 21 4 76 1 123 l-7 85 -1 -81z"/>
<path d="M14432 6560 c0 -14 2 -19 5 -12 2 6 2 18 0 25 -3 6 -5 1 -5 -13z"/>
<path d="M14729 5805 c-1 -11 0 -46 1 -77 2 -52 0 -58 -19 -58 -26 0 -74 -48
-67 -67 3 -8 10 -12 15 -8 5 3 12 1 16 -5 3 -5 17 -7 31 -4 13 3 24 2 24 -3 0
-5 -17 -10 -37 -11 -35 -3 -85 -32 -55 -32 7 0 12 5 12 10 0 6 14 10 30 10 23
0 30 -4 30 -20 0 -11 -4 -20 -9 -20 -11 0 -3 -70 10 -84 15 -17 75 3 87 29 11
23 9 27 -13 35 -34 13 -31 26 8 35 25 6 28 9 12 12 -43 10 -53 31 -54 106 0
40 -2 81 -4 92 -3 11 -1 22 3 25 3 3 0 16 -7 30 -11 22 -13 23 -14 5z"/>
<path d="M14691 5743 c0 -6 -4 -20 -7 -30 -5 -14 -4 -15 5 -7 7 7 11 20 8 30
-3 11 -5 14 -6 7z"/>
<path d="M11365 3293 c-19 -55 -28 -103 -32 -172 -3 -53 -14 -125 -24 -160
-35 -115 -30 -121 97 -121 115 0 115 0 61 306 -20 116 -37 213 -37 217 0 4 -8
7 -19 7 -14 0 -25 -18 -46 -77z"/>
<path d="M11202 3220 c0 -14 2 -19 5 -12 2 6 2 18 0 25 -3 6 -5 1 -5 -13z"/>
<path d="M11191 3174 c0 -11 3 -14 6 -6 3 7 2 16 -1 19 -3 4 -6 -2 -5 -13z"/>
<path d="M11171 3034 c0 -11 3 -14 6 -6 3 7 2 16 -1 19 -3 4 -6 -2 -5 -13z"/>
<path d="M11736 2779 c-6 -46 -3 -70 8 -58 7 8 13 109 6 109 -4 0 -10 -23 -14
-51z"/>
<path d="M11305 2557 c-61 -19 -78 -56 -65 -143 5 -38 10 -112 10 -164 0 -75
-2 -91 -12 -81 -9 8 -12 43 -11 113 2 88 1 100 -12 87 -26 -26 -39 -229 -14
-213 5 3 9 -2 9 -10 0 -9 5 -17 10 -17 6 -1 14 -2 19 -3 5 0 19 -12 30 -25
l21 -24 0 44 c0 24 5 51 10 59 7 11 10 6 10 -22 0 -39 15 -60 23 -31 4 17 5
17 6 1 1 -24 28 -23 36 1 3 11 -1 36 -10 56 -17 43 -19 59 -6 51 6 -4 9 63 9
164 -1 116 -5 170 -12 169 -6 0 -29 -6 -51 -12z"/>
<path d="M11575 2500 c-3 -5 -1 -10 4 -10 6 0 11 5 11 10 0 6 -2 10 -4 10 -3
0 -8 -4 -11 -10z"/>
<path d="M10997 2483 c-4 -3 -7 -11 -7 -17 0 -6 5 -5 12 2 6 6 9 14 7 17 -3 3
-9 2 -12 -2z"/>
<path d="M11095 2366 c-27 -28 -49 -98 -41 -132 4 -14 2 -24 -4 -24 -16 0 -12
-27 6 -34 29 -11 61 -6 78 13 16 17 16 21 -5 55 -20 34 -18 44 7 28 7 -4 14
-18 15 -32 5 -33 25 -27 22 6 -3 36 -21 54 -55 54 -26 0 -29 3 -26 27 2 17 12
32 26 39 32 16 38 24 18 24 -9 0 -28 -11 -41 -24z"/>
<path d="M11181 2118 c0 -10 -6 -18 -12 -18 -5 0 -7 -5 -3 -11 10 -16 27 5 21
27 -4 17 -5 17 -6 2z"/>
<path d="M10466 3249 c-8 -25 -12 -99 -5 -99 9 0 23 99 15 107 -3 3 -8 0 -10
-8z"/>
<path d="M10431 3006 c-14 -58 -14 -89 1 -84 11 4 26 128 15 128 -3 0 -10 -20
-16 -44z"/>
<path d="M10418 2874 c-3 -12 -2 -27 2 -34 11 -18 18 1 10 30 -6 24 -6 24 -12
4z"/>
<path d="M10364 2805 c-3 -8 -4 -20 -2 -27 3 -7 7 -1 10 15 6 29 1 36 -8 12z"/>
<path d="M10400 2765 c0 -9 -6 -18 -14 -21 -11 -4 -12 -11 -3 -35 16 -42 25
-36 29 21 1 28 0 50 -4 50 -5 0 -8 -7 -8 -15z"/>
<path d="M10385 2630 c-3 -5 1 -10 10 -10 9 0 13 5 10 10 -3 6 -8 10 -10 10
-2 0 -7 -4 -10 -10z"/>
<path d="M10376 2593 c-2 -10 -8 -48 -12 -85 -5 -53 -10 -68 -23 -69 -10 0
-11 -2 -3 -6 6 -2 12 -16 12 -29 0 -14 4 -23 9 -20 21 13 52 226 33 226 -6 0
-13 -8 -16 -17z"/>
<path d="M10340 2360 c0 -5 5 -10 10 -10 6 0 10 5 10 10 0 6 -4 10 -10 10 -5
0 -10 -4 -10 -10z"/>
<path d="M10328 2303 c-2 -10 0 -31 5 -46 8 -25 10 -26 22 -11 9 13 9 24 1 46
-12 32 -23 36 -28 11z"/>
<path d="M12411 3304 c0 -11 3 -14 6 -6 3 7 2 16 -1 19 -3 4 -6 -2 -5 -13z"/>
<path d="M9185 3800 c3 -5 15 -10 25 -10 10 0 22 5 25 10 4 6 -7 10 -25 10
-18 0 -29 -4 -25 -10z"/>
<path d="M9465 3780 c-20 -39 -21 -77 -5 -177 11 -68 11 -94 0 -152 -23 -125
8 -169 114 -156 65 8 64 8 103 70 56 89 63 143 36 268 l-17 79 -65 49 c-54 41
-72 49 -108 49 -37 0 -44 -4 -58 -30z"/>
<path d="M9239 3455 c-4 -5 -5 -53 -4 -106 2 -53 0 -102 -5 -109 -4 -6 -3 -25
3 -41 13 -34 3 -48 -23 -32 -15 10 -19 9 -24 -4 -9 -23 12 -33 66 -29 54 3 78
16 30 16 l-31 0 -3 158 c-2 86 -6 153 -9 147z"/>
<path d="M9300 3320 c0 -5 7 -10 15 -10 8 0 15 5 15 10 0 6 -7 10 -15 10 -8 0
-15 -4 -15 -10z"/>
<path d="M9488 3253 c7 -3 16 -2 19 1 4 3 -2 6 -13 5 -11 0 -14 -3 -6 -6z"/>
<path d="M9585 3189 c-4 -6 -5 -13 -2 -16 7 -7 27 6 27 18 0 12 -17 12 -25 -2z"/>
<path d="M9468 3013 c7 -3 16 -2 19 1 4 3 -2 6 -13 5 -11 0 -14 -3 -6 -6z"/>
<path d="M9479 2953 c-25 -66 -31 -155 -25 -388 4 -132 11 -244 16 -249 4 -4
27 -12 50 -16 72 -13 128 42 172 168 29 85 31 235 4 327 -15 51 -27 69 -84
123 -77 72 -115 82 -133 35z m77 -65 c-3 -13 -6 -39 -7 -58 -1 -23 -3 -28 -6
-13 -3 15 -15 26 -36 32 -32 9 -32 9 -5 10 21 1 29 7 34 26 3 14 11 25 16 25
6 0 8 -10 4 -22z m-6 -239 c0 -16 -4 -28 -9 -25 -8 5 -3 56 5 56 2 0 4 -14 4
-31z m47 -181 c-3 -8 -6 -5 -6 6 -1 11 2 17 5 13 3 -3 4 -12 1 -19z"/>
<path d="M12533 3948 c-6 -13 -7 -32 -3 -43 6 -16 8 -12 14 19 9 45 4 55 -11
24z"/>
<path d="M1897 3423 c-25 -3 -37 -8 -33 -16 3 -7 20 -49 38 -95 21 -51 38 -80
45 -77 7 2 62 41 123 86 91 68 108 84 94 92 -18 10 -207 18 -267 10z"/>
<path d="M4100 1513 c-59 -64 -144 -187 -133 -190 82 -25 186 -53 189 -50 2 2
7 69 10 150 5 101 4 147 -3 147 -6 0 -35 -26 -63 -57z"/>
</g>
</svg>
