<?xml version="1.0" standalone="no"?>
<!DOCTYPE svg PUBLIC "-//W3C//DTD SVG 20010904//EN"
 "http://www.w3.org/TR/2001/REC-SVG-20010904/DTD/svg10.dtd">
<svg version="1.0" xmlns="http://www.w3.org/2000/svg"
 width="3374.000000pt" height="942.000000pt" viewBox="0 0 3374.000000 942.000000"
 preserveAspectRatio="xMidYMid meet">

<g transform="translate(0.000000,942.000000) scale(0.100000,-0.100000)"
fill="#3C4C41" stroke="none">
<path d="M0 4710 l0 -4710 16870 0 16870 0 0 4710 0 4710 -16870 0 -16870 0 0
-4710z m5911 3965 c10 -58 12 -86 5 -89 -6 -2 -4 -5 5 -5 15 -1 19 -20 22
-108 0 -20 6 -33 14 -33 7 0 13 -9 13 -20 0 -11 -5 -20 -10 -20 -6 0 -4 -10 4
-22 14 -23 24 -95 32 -218 2 -36 6 -78 8 -95 3 -16 5 -38 5 -47 1 -15 10 -18
54 -18 76 0 304 -26 437 -49 395 -70 835 -249 1179 -479 185 -124 299 -218
477 -396 229 -229 362 -403 518 -675 236 -411 363 -745 435 -1147 17 -97 25
-166 47 -430 3 -38 10 -61 17 -61 50 1 77 -4 71 -15 -5 -7 -3 -8 7 -3 7 5 23
10 34 11 38 4 206 -23 218 -35 14 -14 30 -15 21 0 -4 7 2 9 17 7 13 -2 23 -9
22 -16 -2 -6 6 -12 18 -12 11 0 18 4 15 9 -3 5 13 2 36 -6 22 -8 47 -12 55 -9
7 3 13 -2 14 -12 0 -10 3 -12 6 -4 2 6 9 9 14 6 5 -3 26 -7 47 -10 32 -3 50
-7 95 -19 4 -2 10 -3 15 -4 4 -1 0 -5 -7 -10 -9 -6 -22 -6 -32 0 -11 5 -19 5
-21 -1 -4 -13 -84 -19 -267 -20 -154 0 -207 -8 -75 -11 80 -2 106 -7 99 -19
-3 -5 -99 -8 -213 -7 l-207 1 -2 -49 c-2 -28 -8 -95 -13 -150 -65 -615 -299
-1187 -681 -1660 -100 -123 -324 -351 -439 -447 -106 -88 -290 -224 -290 -215
0 3 29 26 64 51 185 132 443 377 590 561 116 145 354 505 333 505 -2 0 -28
-39 -57 -87 -221 -364 -521 -685 -870 -930 -307 -216 -682 -388 -1035 -474
-161 -39 -386 -76 -517 -84 -95 -7 -108 -10 -114 -27 -12 -38 7 -40 181 -23
186 17 435 63 558 101 43 14 81 23 84 20 5 -5 -69 -28 -207 -65 -112 -30 -312
-68 -425 -81 -55 -6 -118 -13 -141 -16 l-40 -5 2 -219 c2 -121 -1 -222 -6
-225 -12 -7 -17 19 -19 99 -3 132 -11 79 -12 -75 0 -182 -7 -261 -21 -270 -7
-4 -7 -9 0 -13 6 -3 8 -15 5 -26 -11 -42 -25 -7 -38 97 -2 18 -6 37 -10 43 -7
12 -17 80 -18 127 0 20 -6 33 -14 33 -7 0 -13 9 -13 20 0 11 5 20 10 20 6 0 4
10 -4 22 -14 23 -24 90 -32 223 -3 39 -7 81 -9 95 -2 14 -4 31 -4 38 -1 9 -31
12 -114 12 -289 0 -689 76 -993 190 -569 213 -1041 559 -1415 1040 -229 293
-462 739 -579 1105 -65 207 -116 460 -135 678 -7 69 -9 77 -29 78 -47 2 -123
8 -161 14 -22 3 -76 8 -120 10 -94 5 -134 13 -154 29 -11 8 -13 8 -7 -1 10
-18 -5 -16 -34 4 -17 12 -25 13 -28 5 -5 -17 -42 -15 -42 2 0 10 -13 15 -42
15 -72 2 -96 6 -105 15 -5 5 -2 6 6 1 9 -5 12 -4 7 3 -4 6 -13 9 -20 6 -8 -3
-38 0 -67 6 -30 6 -63 12 -74 14 -31 5 -32 7 -10 15 11 5 28 4 39 -1 13 -7 16
-7 12 1 -5 7 6 12 31 13 21 1 47 3 58 4 11 1 89 2 174 3 160 1 201 9 68 14
-43 1 -77 6 -77 12 0 12 299 14 456 3 l101 -6 7 141 c27 550 178 1050 460
1525 212 356 534 699 891 947 93 65 72 44 -44 -44 -206 -155 -422 -369 -582
-576 -76 -99 -213 -306 -264 -400 -54 -98 -38 -79 40 50 140 231 340 474 539
657 502 459 1125 743 1786 813 74 8 174 15 221 15 l86 0 1 31 1 31 -122 -6
c-338 -19 -666 -88 -977 -205 -57 -22 -106 -38 -108 -37 -5 6 240 100 336 130
255 80 620 146 808 146 l51 0 -1 225 c-1 144 3 225 9 225 6 0 11 -35 12 -81 4
-138 13 -101 14 57 0 82 3 167 5 189 3 22 5 50 5 63 0 12 3 22 7 22 5 0 7 14
4 30 -2 17 0 30 5 30 5 0 16 -38 24 -85z m-74 -157 c-3 -8 -6 -5 -6 6 -1 11 2
17 5 13 3 -3 4 -12 1 -19z m24098 -649 c49 -5 92 -14 96 -20 3 -6 9 -61 12
-122 4 -83 16 -154 45 -272 35 -138 41 -181 47 -315 9 -232 24 -397 40 -444
32 -97 54 -207 58 -291 3 -49 21 -162 40 -250 24 -111 37 -200 41 -290 4 -71
15 -161 25 -200 10 -38 15 -72 11 -75 -14 -9 -17 -149 -3 -154 8 -4 15 11 19
47 7 51 8 52 19 23 9 -21 13 -24 18 -13 7 18 47 42 47 29 0 -5 -11 -21 -24
-34 -12 -14 -28 -46 -34 -70 -10 -40 -7 -65 29 -229 35 -154 41 -201 40 -286
-1 -104 11 -162 74 -372 21 -71 25 -103 25 -219 0 -146 20 -252 47 -252 10 0
13 -12 12 -47 -1 -27 1 -58 5 -70 15 -47 -85 -56 -379 -35 -82 6 -151 11 -151
11 -8 4 -35 90 -40 129 -5 43 -3 55 15 78 66 84 50 254 -29 301 -24 14 -31 28
-45 92 -43 194 -102 250 -262 251 l-83 0 6 -312 c13 -632 10 -576 37 -571 12
2 33 0 47 -5 20 -8 29 -6 47 10 l21 20 7 -32 c4 -17 4 -34 1 -38 -4 -3 -155
-5 -336 -4 l-330 1 0 -26 c0 -22 -2 -24 -15 -13 -9 7 -14 19 -11 26 4 9 -9 14
-42 16 -30 2 -46 7 -45 15 3 14 -41 20 -185 27 -130 5 -136 10 -129 96 4 63
62 296 77 314 5 4 17 -1 29 -13 31 -31 28 -96 -8 -164 -24 -46 -27 -58 -16
-67 10 -9 19 -6 34 9 12 12 21 26 21 31 0 6 6 10 14 10 28 0 79 55 107 115 16
33 29 66 29 74 0 23 -33 40 -78 41 -46 0 -53 7 -55 61 -1 18 -7 34 -13 36 -11
4 -27 -31 -25 -53 1 -6 -6 -17 -14 -24 -13 -10 -15 -9 -15 7 0 11 4 42 9 69 5
27 19 120 31 208 11 87 37 218 56 290 32 118 37 150 44 316 6 145 19 256 59
510 29 179 58 366 66 415 7 50 25 135 39 190 31 125 57 264 96 516 16 108 41
247 54 310 14 63 43 231 65 374 51 323 46 301 79 320 23 13 57 15 232 10 113
-3 245 -10 295 -16z m-15850 -59 c66 -17 157 -49 201 -70 75 -36 85 -45 122
-102 60 -96 90 -159 105 -224 8 -38 27 -78 51 -110 l37 -50 0 -1437 -1 -1438
-42 -45 c-43 -45 -66 -90 -67 -131 -1 -12 -24 -57 -53 -99 -28 -43 -55 -96
-60 -117 -14 -62 -36 -85 -122 -127 -91 -45 -289 -107 -380 -119 -84 -11 -202
4 -311 40 -127 42 -181 79 -225 155 -19 33 -61 90 -93 125 -74 81 -153 198
-167 247 -6 24 -10 353 -10 952 l-1 915 -24 40 -25 40 0 308 c0 169 -5 350
-10 401 -13 115 -5 157 44 220 35 47 37 51 35 121 -3 87 14 121 117 234 65 70
68 72 76 50 6 -14 5 -48 -1 -83 -7 -39 -7 -64 -1 -71 6 -7 7 -32 4 -57 -4 -27
-1 -61 6 -83 11 -33 10 -40 -3 -49 -13 -10 -13 -14 -1 -31 17 -23 18 -55 2
-55 -9 0 -9 -3 0 -12 18 -18 15 -38 -5 -38 -15 0 -15 -2 -4 -9 8 -5 11 -16 8
-24 -3 -8 -3 -18 1 -22 6 -6 12 -477 15 -1157 1 -195 0 -219 -16 -236 -20 -22
-20 -89 0 -85 15 3 26 -128 21 -257 l-3 -94 -35 -24 -35 -25 37 6 c34 5 36 4
42 -26 3 -18 2 -48 -4 -67 -6 -21 -8 -152 -4 -344 7 -419 13 -419 19 -1 2 146
4 163 24 170 17 5 19 24 27 218 l9 212 43 -1 c23 0 42 3 42 8 0 4 9 8 21 8 39
0 8 19 -50 31 l-59 13 -8 120 -9 121 -6 -105 c-3 -58 -7 -98 -8 -90 -2 8 -7
-3 -11 -25 -6 -28 -7 -18 -4 35 2 41 4 101 3 132 0 38 6 68 17 87 16 27 16 36
4 99 -10 56 -10 79 0 121 12 52 5 295 -9 287 -3 -2 -7 17 -8 42 -1 26 2 40 6
33 10 -15 22 -13 37 7 9 13 22 13 91 2 l80 -12 7 -257 c3 -141 6 -362 5 -491
-1 -129 0 -313 1 -407 2 -160 1 -173 -16 -173 -16 0 -16 -1 -2 -12 9 -8 18
-37 22 -73 3 -33 13 -115 21 -182 23 -192 61 -248 192 -284 l64 -17 59 30 c65
32 96 68 107 119 3 19 15 48 26 66 28 48 32 135 12 244 -11 60 -17 131 -15
197 1 56 2 136 2 177 0 41 -1 122 -1 180 0 58 0 131 -1 163 0 31 -2 379 -4
773 -3 538 -7 726 -16 755 -30 92 -93 139 -211 154 -119 14 -148 -11 -193
-170 -40 -140 -72 -479 -64 -667 3 -82 2 -94 -14 -99 -23 -7 -127 13 -145 28
-11 9 -17 9 -24 -3 -7 -9 -8 34 -4 132 5 107 3 149 -5 154 -7 4 -9 17 -6 30 3
13 2 26 -3 30 -5 3 -12 -5 -14 -17 -2 -13 -5 -5 -5 17 0 22 2 35 4 28 3 -7 12
-9 20 -6 11 4 14 32 14 143 0 76 3 140 8 142 4 2 5 41 2 88 -5 86 -20 82 -20
-6 0 -30 -4 -41 -16 -41 -10 0 -14 7 -11 19 3 10 2 20 -3 23 -4 2 -4 24 1 47
4 24 8 103 9 176 l0 132 33 0 c30 0 34 4 46 44 7 24 26 56 42 72 21 21 29 37
29 63 0 51 -12 67 -34 46 -15 -15 -17 -14 -34 14 -21 38 -29 39 -44 6 -9 -21
-13 -23 -20 -11 -9 17 5 60 24 72 7 4 31 7 53 6 l40 -1 -33 12 -34 13 26 14
c24 12 28 12 41 -6 14 -19 15 -18 21 4 4 13 17 24 33 28 82 17 152 36 201 54
77 28 197 21 355 -20z m3040 -10 c44 -12 128 -24 186 -29 l107 -8 60 -47 c33
-25 72 -50 87 -56 15 -6 46 -24 71 -41 43 -30 44 -31 44 -88 0 -44 5 -62 19
-75 29 -26 69 -125 93 -228 16 -69 22 -128 22 -228 1 -126 -1 -138 -24 -179
-46 -81 -127 -105 -266 -80 -118 21 -133 27 -162 72 -26 40 -27 47 -27 175 l0
132 -75 70 c-83 77 -105 83 -169 50 -50 -25 -84 -66 -113 -137 l-23 -58 -3
-1155 c-2 -635 -4 -1191 -5 -1235 -2 -69 2 -86 23 -125 50 -88 170 -132 265
-96 99 38 126 112 134 371 l6 179 49 19 c64 23 220 34 269 18 47 -16 86 -47
99 -80 36 -91 49 -168 50 -299 2 -125 -1 -147 -29 -252 -36 -136 -86 -249
-148 -335 -46 -65 -92 -98 -219 -157 l-59 -28 -251 0 -251 0 -62 29 c-34 16
-83 49 -108 72 -42 39 -51 42 -111 47 -89 6 -174 -5 -174 -23 0 -26 43 -38
139 -38 l96 -1 -85 -3 c-47 -2 -80 -7 -73 -11 8 -5 7 -19 -4 -52 -19 -55 -19
-56 -37 -41 -11 9 -15 8 -20 -4 -8 -21 -85 -19 -111 3 -15 12 -21 28 -20 60 0
24 -3 46 -7 48 -15 9 -8 33 11 39 14 4 19 14 18 33 -2 24 -8 28 -52 39 l-50
12 40 -1 c70 -1 75 0 75 27 0 27 -17 34 -26 10 -8 -19 -30 -19 -37 0 -4 9 -17
13 -37 12 -25 -2 -30 -6 -30 -29 0 -15 5 -30 10 -33 13 -8 13 -45 0 -45 -5 0
-10 -25 -12 -56 -5 -98 11 -95 -423 -94 -204 0 -383 1 -400 1 -16 1 -130 -2
-252 -5 l-222 -7 -51 26 c-28 14 -55 36 -59 48 -5 12 -12 78 -15 147 -8 136
-7 1223 2 2114 l2 258 58 -7 c81 -10 130 -10 187 -1 l51 8 10 -38 11 -39 21
45 c25 52 27 97 8 123 -12 15 -18 16 -35 8 -11 -6 -45 -11 -75 -11 -72 0 -73
16 -4 65 28 21 74 58 100 83 39 37 48 51 43 69 -4 18 1 27 25 41 l30 19 -28
26 c-44 43 -83 52 -127 30 -38 -18 -65 -47 -54 -58 3 -3 20 0 38 6 32 11 94 3
74 -9 -6 -4 -14 -25 -18 -46 -9 -43 -15 -51 -103 -118 l-62 -48 0 -55 0 -55
-65 0 -65 0 0 80 c0 67 5 93 32 160 20 48 39 80 47 80 16 0 61 38 61 52 0 17
-47 26 -94 17 -85 -16 -80 -32 -81 318 -1 237 -4 324 -16 378 -19 87 -11 122
36 154 40 27 53 27 371 24 l202 -3 30 -31 c37 -38 58 -110 41 -141 -9 -16 -10
-115 -7 -365 3 -189 2 -343 -3 -343 -4 0 -20 5 -35 10 -38 15 -92 -4 -100 -35
-3 -13 -12 -25 -19 -27 -10 -2 -4 -19 20 -58 40 -61 42 -70 18 -70 -30 0 -53
31 -53 71 0 44 -15 58 -38 36 -13 -14 -14 -22 -3 -58 7 -23 24 -53 37 -66 21
-21 32 -24 75 -21 l51 3 -5 -45 c-4 -33 -13 -51 -36 -72 -17 -15 -40 -28 -51
-28 -10 0 -22 -4 -25 -10 -10 -15 42 -12 75 5 17 9 43 38 59 66 l29 51 -1
-119 c0 -65 2 -371 5 -680 l6 -563 -24 0 c-15 0 -24 -6 -24 -15 0 -11 7 -14
24 -9 23 5 24 3 30 -63 4 -37 12 -95 17 -128 8 -46 6 -79 -6 -140 -9 -51 -15
-136 -15 -235 0 -137 2 -159 20 -188 11 -18 32 -37 47 -43 16 -6 47 -20 71
-30 55 -25 134 -24 264 1 57 11 127 20 157 20 118 0 188 -70 199 -196 3 -36 8
-62 11 -57 3 5 18 16 33 26 15 9 30 28 34 42 5 21 12 25 46 25 l40 0 -3 113
c-2 61 0 118 4 125 6 8 4 12 -5 10 -7 -2 -18 -21 -25 -43 l-11 -40 -1 45 c-1
26 -6 51 -13 58 -9 9 -8 12 5 12 14 0 15 10 10 85 -4 61 -3 85 6 85 14 0 15
47 0 55 -6 4 -8 22 -5 44 10 68 11 126 1 126 -6 0 -15 4 -22 8 -6 4 -57 10
-112 13 -93 5 -101 4 -102 -13 0 -16 -1 -16 -9 2 -5 11 -9 24 -9 28 -1 5 53 6
119 2 85 -5 120 -4 120 3 0 6 7 9 15 6 8 -4 15 -1 15 6 0 6 4 9 8 6 10 -6 10
-7 21 121 5 56 6 125 1 155 -6 41 -8 19 -9 -94 0 -81 -5 -149 -10 -152 -15
-10 -21 63 -15 189 10 209 12 261 7 215 -7 -72 -20 -68 -28 9 -8 77 2 69 -100
88 l-40 7 30 7 c17 4 46 7 66 8 36 1 36 1 43 54 3 28 6 87 6 130 0 73 1 78 25
87 17 7 25 17 25 37 4 109 11 948 10 1075 l-2 157 55 128 c31 71 59 142 62
158 4 17 18 66 32 110 l25 80 113 90 c96 77 126 95 201 121 108 38 145 40 249
14z m6457 -1 c46 -12 131 -24 189 -28 105 -8 106 -8 159 -50 30 -23 76 -54
104 -68 97 -49 106 -60 106 -124 0 -48 4 -63 25 -85 77 -83 140 -441 101 -576
-37 -129 -150 -165 -357 -113 -60 15 -68 20 -89 57 -33 59 -41 104 -29 178 16
99 8 118 -74 199 -80 79 -100 85 -166 51 -48 -24 -95 -79 -118 -139 -17 -43
-18 -122 -22 -1191 -2 -630 -4 -1190 -5 -1246 -1 -94 1 -103 26 -142 59 -88
180 -125 271 -82 92 43 116 114 124 368 l6 173 26 14 c73 37 251 46 318 16 52
-24 69 -51 99 -153 19 -65 24 -107 25 -212 2 -117 -2 -144 -29 -249 -34 -131
-78 -234 -133 -317 -52 -77 -80 -101 -190 -159 l-96 -51 -251 0 c-294 0 -315
5 -424 94 l-66 55 -111 -3 c-60 -1 -114 -5 -118 -9 -4 -4 4 -18 17 -30 23 -20
32 -22 101 -17 42 3 89 2 105 -1 17 -4 -7 -7 -61 -9 -49 -1 -85 -4 -79 -6 8
-3 7 -17 -3 -46 -19 -56 -23 -61 -38 -48 -9 8 -14 6 -19 -5 -8 -21 -85 -19
-111 3 -13 11 -21 32 -23 61 -1 24 -7 52 -13 62 -7 14 -6 19 3 19 7 0 19 4 27
9 12 8 12 12 2 24 -9 12 -9 17 1 23 8 6 -6 13 -42 21 -45 9 -48 12 -20 11 76
0 80 1 80 27 0 30 -7 31 -33 8 -18 -17 -19 -17 -29 1 -7 12 -17 16 -34 12 -17
-5 -26 -1 -34 13 -16 30 -12 39 19 55 15 8 34 29 41 46 11 26 17 30 53 30 l40
0 -5 114 c-4 75 -2 118 5 125 7 7 8 11 1 11 -10 0 -23 -21 -40 -65 -6 -15 -9
-6 -14 35 -4 30 -2 58 3 61 5 4 7 41 6 84 -3 56 0 80 9 83 15 5 16 48 1 57 -7
5 -8 36 -4 94 7 80 6 87 -11 87 -11 0 -47 4 -81 8 -37 4 -63 3 -63 -2 0 -5 7
-49 16 -98 20 -112 20 -261 0 -386 -9 -54 -16 -126 -15 -160 1 -85 24 -277 31
-258 4 12 8 12 18 3 19 -18 4 -46 -20 -38 -16 5 -20 2 -20 -14 0 -44 -21 -69
-63 -75 -22 -4 -94 -25 -158 -46 -133 -45 -148 -46 -249 -24 l-73 17 6 656 c4
361 10 942 13 1291 5 432 3 715 -5 885 -9 199 -9 279 1 395 15 166 16 248 4
411 -12 161 -8 179 52 204 39 17 69 20 182 20 154 -1 239 -10 266 -30 17 -12
19 -28 19 -137 -1 -68 -5 -163 -9 -213 -6 -67 -4 -115 8 -190 24 -150 31 -388
16 -540 -7 -71 -16 -168 -19 -215 -6 -84 -6 -85 -14 -37 -11 66 -60 120 -108
120 -19 0 -44 -4 -56 -8 -20 -6 -23 -4 -23 18 0 22 6 28 39 37 51 14 86 42 78
63 -11 29 -35 19 -96 -40 -64 -63 -81 -102 -81 -186 0 -52 24 -110 60 -142 32
-29 96 -25 156 10 l47 28 -5 -624 c-4 -343 -3 -635 1 -649 6 -23 12 -25 74
-28 41 -2 67 1 67 7 0 6 7 8 15 5 9 -4 15 0 15 9 0 8 6 17 13 19 15 6 27 175
18 263 -5 45 -7 22 -11 -94 -4 -115 -8 -155 -18 -159 -11 -3 -12 32 -9 184 3
104 1 180 -3 169 -5 -13 -10 6 -14 57 l-8 77 -36 6 c-20 4 -50 9 -67 12 l-30
6 25 8 c14 4 41 7 61 8 l36 1 12 84 c7 46 11 103 10 127 -3 38 0 45 21 56 19
9 25 21 27 50 1 21 4 306 7 633 l4 595 56 128 c31 70 56 134 56 142 0 8 13 56
30 107 l30 93 83 68 c119 97 143 111 237 145 104 36 135 38 242 11z m-4582
-41 c19 0 58 3 87 7 l51 7 27 -88 c37 -125 49 -158 90 -252 31 -71 37 -96 42
-180 4 -80 13 -118 48 -217 35 -100 45 -141 54 -245 9 -97 37 -232 123 -595
61 -259 130 -562 153 -675 48 -233 53 -252 105 -370 32 -71 39 -101 45 -182 7
-89 10 -99 36 -124 23 -22 29 -36 29 -71 0 -24 9 -83 19 -131 10 -48 22 -143
25 -212 5 -92 13 -146 32 -205 36 -114 85 -316 78 -326 -13 -22 -73 -41 -152
-49 -99 -11 -391 3 -422 20 -25 13 -36 59 -48 197 -9 96 -14 120 -40 165 -23
40 -37 87 -55 188 -20 107 -30 138 -47 152 -31 25 -86 33 -130 18 -22 -7 -55
-10 -81 -6 -67 10 -395 19 -443 12 -37 -6 -44 -11 -68 -59 -40 -75 -95 -306
-119 -492 -11 -88 -24 -164 -29 -169 -5 -5 -45 -10 -87 -11 -43 -1 -123 -5
-178 -9 -118 -10 -174 1 -206 42 -19 24 -21 36 -16 97 3 39 27 151 53 250 90
343 104 401 128 515 14 63 32 160 41 215 9 55 27 141 40 190 13 50 33 142 45
205 11 63 43 196 69 295 103 379 153 580 154 612 1 18 4 33 7 33 4 0 19 45 35
100 29 107 29 107 94 94 28 -6 31 -10 31 -43 0 -20 -5 -52 -10 -72 -8 -28 -7
-45 5 -72 18 -45 18 -47 1 -47 -11 0 -13 -16 -10 -82 3 -45 1 -84 -4 -87 -5
-3 -6 -31 -2 -61 l6 -55 8 37 c5 21 12 35 17 32 5 -3 9 1 10 8 0 7 4 4 8 -7 5
-11 4 -30 0 -43 -5 -13 -9 -64 -9 -113 l0 -89 -31 0 c-23 0 -42 -12 -80 -49
-53 -52 -57 -62 -34 -81 11 -9 18 -10 28 -1 11 8 18 6 32 -9 17 -18 20 -19 41
-5 20 13 23 12 28 -2 8 -21 -1 -29 -44 -41 l-35 -10 33 -1 c24 -1 32 -6 32
-19 0 -10 5 -23 11 -29 13 -13 -24 -28 -42 -17 -9 5 -10 0 -4 -17 5 -13 9 -46
10 -72 3 -57 22 -76 78 -77 20 0 37 -2 37 -4 0 -2 -11 -47 -25 -100 -19 -68
-25 -115 -23 -163 l3 -68 120 2 c66 1 140 3 165 3 25 1 79 -2 121 -5 l75 -7
27 35 c23 31 28 50 38 154 l11 118 -55 255 c-32 147 -58 295 -62 350 -9 134
-24 231 -41 258 -10 16 -24 22 -49 22 -29 0 -40 -7 -65 -41 -41 -57 -67 -131
-80 -230 -12 -90 -76 -348 -90 -363 -4 -4 -24 7 -44 25 -32 29 -37 40 -38 80
0 25 5 55 11 67 7 14 8 22 2 22 -6 0 -10 15 -9 33 0 17 -2 47 -6 65 -6 27 -5
32 10 32 16 0 15 2 -5 16 -16 12 -20 19 -12 27 7 7 7 14 0 24 -9 10 -7 13 10
13 19 0 20 1 5 19 -15 17 -17 51 -15 273 1 139 -2 291 -6 338 l-8 85 -6 -60
c-6 -60 -6 -60 -8 25 -2 47 -6 96 -10 110 -7 24 -8 23 -19 -15 -16 -53 -15
-64 3 -71 19 -8 19 -33 1 -53 -9 -10 -12 -27 -9 -44 4 -21 8 -25 14 -15 7 10
9 9 9 -4 0 -9 -4 -20 -10 -23 -5 -3 -10 -12 -10 -18 0 -7 4 -6 10 3 8 13 10
12 10 -3 0 -13 -5 -16 -24 -11 -13 3 -27 1 -30 -5 -7 -11 -56 -16 -56 -5 0 12
49 190 64 232 l15 42 -133 0 c-73 0 -154 -3 -179 -6 -43 -6 -45 -8 -51 -46 -4
-23 -2 -46 4 -53 8 -9 5 -14 -9 -18 -31 -8 -32 5 -23 513 1 85 5 111 13 103 7
-7 13 -28 14 -48 1 -20 8 -41 16 -46 11 -6 11 -11 1 -21 -13 -13 -17 -89 -4
-86 14 4 72 -14 72 -22 0 -4 -9 -10 -20 -13 -14 -4 -20 -14 -20 -35 0 -22 -6
-32 -20 -37 -11 -4 -18 -10 -15 -15 3 -5 -3 -10 -12 -13 -29 -6 31 -27 78 -27
24 0 38 -4 34 -10 -3 -5 -21 -10 -39 -10 -43 0 -52 -11 -24 -28 23 -13 23 -13
-4 -9 -18 3 -25 0 -20 -7 3 -6 5 -19 4 -28 -4 -26 53 -24 102 3 36 19 67 18
36 -1 -23 -15 66 -17 173 -5 l57 6 1 52 1 52 8 -53 c10 -64 20 -79 20 -29 0
26 6 39 21 47 20 11 24 54 4 48 -5 -2 -12 11 -15 27 -5 29 -7 30 -58 29 -28
-1 -60 -5 -69 -9 -25 -10 -206 -6 -217 5 -17 17 69 30 164 25 52 -3 89 -3 83
1 -9 4 -7 16 9 47 18 34 23 38 26 22 5 -26 21 -45 38 -45 19 0 19 74 -1 90 -8
7 -12 16 -9 22 3 5 12 4 20 -3 11 -9 14 -8 14 5 0 9 10 21 23 26 17 7 18 9 5
9 -13 1 -18 9 -18 28 0 38 66 359 90 437 27 86 46 100 125 91 33 -4 76 -7 95
-7z m-6119 -43 c58 -30 52 -123 -15 -247 l-46 -85 0 -285 0 -285 -42 -84 -43
-84 -5 -215 c-5 -195 -7 -219 -28 -263 -12 -27 -22 -67 -22 -90 0 -64 -29
-342 -46 -432 -8 -44 -14 -94 -14 -112 0 -18 -9 -55 -20 -83 -11 -28 -20 -65
-20 -83 0 -18 -8 -96 -17 -174 -16 -130 -20 -143 -38 -144 -17 -1 -17 -2 -2
-6 9 -2 17 -12 17 -21 0 -30 -31 -225 -46 -289 -18 -80 -18 -284 1 -393 l15
-84 -24 -24 c-40 -41 -199 -47 -315 -13 -23 7 -67 7 -140 -2 -170 -19 -226
-16 -253 11 -21 20 -23 33 -25 131 -1 60 -9 136 -17 169 -9 33 -16 76 -16 96
0 20 -11 59 -25 86 -22 43 -25 63 -25 152 -1 172 -37 481 -67 568 -16 48 -26
118 -43 295 -14 149 -37 279 -71 405 -34 127 -38 184 -16 227 22 42 21 84 -2
109 -10 12 -23 43 -29 70 l-11 48 41 38 c29 27 38 42 34 56 -5 14 1 26 21 41
l28 21 -33 29 c-39 33 -75 43 -111 30 -33 -13 -37 -4 -50 115 -6 56 -18 142
-27 191 -9 50 -18 135 -21 190 -4 71 -13 127 -34 193 -16 51 -29 98 -29 105 0
35 45 54 180 75 74 12 144 22 155 22 41 0 97 -22 127 -49 l32 -28 7 -139 c5
-81 19 -191 34 -264 14 -69 32 -170 40 -225 8 -56 23 -143 34 -194 l20 -93
-28 -56 c-43 -85 -46 -101 -24 -117 10 -8 33 -15 51 -15 29 0 32 -3 32 -32 0
-18 12 -60 26 -93 41 -96 65 -218 62 -315 -3 -82 -4 -85 -28 -88 -39 -6 -49
-22 -12 -22 32 0 32 0 32 -52 1 -160 69 -231 146 -154 20 20 33 39 30 44 -3 5
1 53 9 108 8 54 15 160 15 234 0 100 6 168 25 265 36 193 67 416 75 535 4 67
18 147 37 220 33 121 49 270 44 398 -2 73 -2 74 33 107 44 41 95 59 144 51
113 -19 148 -18 188 3 43 23 94 22 145 -4z m7688 -24 c72 -15 98 -24 111 -41
24 -32 147 -266 201 -385 26 -55 54 -135 62 -176 18 -85 89 -279 116 -318 10
-14 22 -42 26 -61 27 -128 94 -287 138 -328 13 -12 43 -24 74 -28 l52 -6 44
88 c62 126 63 131 23 208 -33 63 -34 68 -39 213 -3 81 -10 191 -16 243 -9 73
-8 118 1 195 9 68 10 119 4 160 -5 33 -10 91 -10 128 -1 66 0 69 34 97 32 26
41 28 165 35 109 6 138 4 180 -10 81 -28 101 -42 130 -91 24 -42 27 -52 20
-98 -12 -74 -11 -139 3 -241 15 -111 -1 -548 -24 -634 -16 -62 -9 -143 28
-331 17 -88 19 -122 12 -210 -11 -149 -11 -330 2 -435 7 -58 7 -116 1 -165 -5
-41 -11 -369 -13 -728 l-5 -654 -42 7 c-62 10 -110 52 -119 105 -5 30 -3 52 6
71 12 24 12 28 0 33 -10 4 -12 14 -8 31 3 13 1 38 -4 54 -9 24 -8 31 6 36 13
5 14 8 3 14 -7 5 -15 23 -17 40 -3 24 0 31 14 31 15 0 15 2 2 10 -8 5 -11 10
-7 10 5 0 5 6 0 13 -4 6 -8 143 -9 302 0 287 -9 419 -25 409 -5 -3 -8 43 -7
103 l1 108 6 -87 c8 -105 21 -127 21 -34 0 56 3 71 21 84 22 18 17 57 -6 48
-15 -5 -25 56 -25 151 0 64 0 64 35 79 44 18 45 24 1 17 -28 -4 -34 -2 -39 16
-3 12 -1 23 4 26 10 7 8 400 -3 417 -4 7 -8 -53 -8 -133 0 -144 0 -146 -24
-157 -22 -10 -24 -18 -29 -104 -3 -51 -9 -110 -13 -130 -6 -35 -9 -38 -43 -39
-20 -1 -47 -4 -61 -8 -20 -6 -13 -10 41 -20 l67 -13 9 -76 10 -77 2 63 c0 39
5 61 11 57 11 -7 14 -118 3 -129 -9 -9 -15 -249 -7 -295 4 -26 8 -31 15 -20 7
11 9 11 9 -3 0 -10 -5 -18 -11 -18 -6 0 -9 -9 -6 -19 3 -13 0 -18 -12 -16 -9
1 -20 0 -24 -2 -5 -3 -60 -5 -123 -4 -102 2 -113 0 -107 -14 3 -9 9 -12 12 -7
3 5 45 8 96 6 123 -5 139 -7 147 -19 11 -15 9 -85 -2 -85 -5 0 -10 -18 -10
-39 0 -22 5 -43 10 -46 6 -3 10 -17 10 -31 0 -13 -4 -24 -10 -24 -6 0 -10 -35
-10 -84 0 -46 -3 -86 -7 -88 -5 -1 -6 -28 -3 -58 6 -54 12 -53 24 3 4 16 13
27 23 27 13 0 14 -3 5 -12 -7 -7 -11 -23 -11 -37 1 -25 2 -25 10 4 7 26 8 25
4 -10 -3 -22 -5 -75 -5 -117 l0 -78 -38 0 c-32 0 -39 -4 -50 -30 -8 -17 -27
-37 -43 -45 -29 -15 -34 -29 -23 -59 4 -11 13 -14 30 -10 16 4 31 1 43 -10 16
-15 19 -15 31 -1 18 22 30 18 30 -10 0 -26 -7 -29 -80 -27 -32 1 -33 0 -10 -7
14 -5 38 -9 54 -10 22 -1 27 -5 22 -17 -4 -9 -2 -22 4 -29 8 -10 4 -14 -15
-19 -21 -5 -24 -11 -19 -31 3 -13 7 -42 8 -64 1 -27 9 -46 22 -56 25 -19 100
-20 107 -1 4 9 14 12 26 9 14 -3 21 -1 21 8 0 8 7 27 15 43 13 24 13 31 3 38
-8 5 3 8 28 8 38 0 42 -2 48 -31 3 -17 6 -56 6 -85 0 -45 -5 -59 -30 -88 -39
-43 -109 -71 -180 -70 -55 0 -287 50 -304 65 -11 9 -67 178 -106 319 -16 58
-50 155 -75 215 -26 61 -65 153 -86 205 -22 52 -48 111 -58 130 -18 33 -91
214 -91 225 0 3 -15 26 -33 52 -18 27 -41 73 -52 103 -39 115 -55 140 -101
154 -34 10 -53 -15 -74 -98 -21 -85 -26 -171 -11 -224 21 -72 30 -923 12
-1063 l-13 -95 -45 -14 c-57 -16 -228 -8 -294 15 -51 18 -99 63 -119 113 -11
27 -11 48 0 116 8 50 11 125 8 187 -4 64 2 183 13 309 15 163 16 219 7 280 -6
47 -7 116 -2 185 12 163 10 331 -3 410 -16 89 -16 318 -1 410 11 67 20 402 19
715 0 79 -8 201 -17 269 -13 104 -14 148 -5 256 6 71 13 225 16 340 2 116 7
233 11 261 l6 51 72 30 c39 17 80 29 91 27 11 -3 62 -13 114 -23z m7621 19
c95 -9 161 -9 225 -2 101 11 106 10 135 -48 20 -38 40 -168 40 -252 0 -111
-87 -199 -158 -159 -13 7 -26 11 -28 8 -3 -2 -11 -44 -20 -93 -9 -49 -17 -90
-19 -92 -2 -2 -9 -1 -15 3 -8 5 -9 20 -5 41 3 19 8 62 10 96 l4 61 -82 -7
c-45 -3 -110 -9 -144 -13 l-63 -6 -38 -61 -37 -61 3 -383 c3 -326 6 -383 18
-378 20 8 67 -12 58 -25 -4 -6 -20 -8 -40 -4 -39 7 -38 11 -23 -90 10 -69 15
-78 47 -105 43 -36 134 -69 140 -51 5 14 39 14 44 0 3 -8 24 -10 71 -5 37 4
65 11 63 15 -3 4 -1 13 5 21 7 12 9 10 9 -7 0 -21 4 -23 64 -23 l64 0 16 -69
c19 -83 21 -199 4 -272 -11 -48 -16 -54 -58 -73 -36 -16 -70 -21 -172 -24
-116 -4 -127 -6 -131 -24 -7 -25 -31 -18 -35 10 -5 32 -76 31 -103 0 -48 -57
-48 -52 -50 -479 -1 -391 8 -600 34 -784 l12 -80 60 -30 c53 -27 70 -30 150
-30 50 0 133 3 187 8 l96 7 32 -40 c31 -39 32 -44 33 -143 2 -116 -12 -156
-60 -176 -36 -15 -108 -17 -153 -4 -21 6 -78 6 -144 1 -61 -5 -233 -7 -384 -6
l-275 3 -15 40 c-13 34 -14 125 -12 605 1 311 3 566 3 567 1 1 26 -3 56 -9 59
-10 102 -2 66 12 -11 5 -44 9 -72 9 -47 1 -53 3 -53 22 0 12 8 28 18 35 16 13
16 13 -1 14 -18 0 -19 39 -18 1133 1 622 -1 1178 -5 1235 l-7 103 31 32 31 32
228 3 c125 2 289 -2 363 -8z m3163 -37 c215 -6 226 -7 236 -27 11 -20 11 -20
5 2 -4 17 -1 22 14 22 15 0 21 -10 27 -42 12 -61 9 -151 -4 -176 -7 -12 -8
-22 -2 -22 15 0 21 -28 11 -54 -8 -21 -4 -50 15 -112 5 -17 1 -23 -17 -28 -20
-6 -21 -8 -7 -19 24 -18 34 -58 18 -69 -11 -7 -11 -11 -1 -15 21 -8 13 -33
-10 -33 -21 -1 -22 -2 -5 -14 10 -8 15 -20 11 -30 -3 -9 -2 -16 4 -16 6 0 9
-158 9 -447 0 -258 4 -484 10 -533 l10 -85 2 75 c2 112 12 184 23 168 7 -9 8
-7 5 8 -3 13 1 21 9 21 8 0 14 -5 14 -11 0 -5 6 -2 13 8 12 17 23 18 90 11
l77 -7 0 -662 c0 -502 -3 -665 -12 -674 -9 -9 -9 -12 0 -12 9 0 12 -82 12
-341 0 -188 5 -405 11 -484 12 -145 5 -244 -23 -337 -10 -34 -15 -38 -60 -47
-72 -16 -429 -14 -449 2 -10 7 -29 42 -44 77 -36 86 -43 197 -21 345 31 204
37 338 20 465 -12 92 -17 323 -24 1140 -9 1197 -15 1387 -39 1394 -66 19 -111
26 -216 35 -66 5 -144 15 -173 22 -60 14 -67 28 -63 114 5 119 6 205 1 274
l-5 75 40 23 c46 26 96 28 488 16z m890 -17 c16 -22 -10 -477 -29 -495 -3 -3
-59 -5 -124 -3 -139 4 -184 -9 -197 -55 -12 -44 -8 -273 6 -318 16 -49 26
-378 14 -454 -7 -48 -11 -55 -35 -62 -16 -4 -30 -3 -34 2 -3 5 -17 9 -32 9
-15 0 -39 7 -54 14 -19 10 -28 11 -28 3 0 -7 -3 -7 -9 -2 -6 6 -6 60 0 144 5
81 6 138 0 145 -14 17 -17 76 -5 84 6 4 14 21 18 37 4 17 3 25 -1 19 -4 -7 -9
38 -10 99 -1 73 3 115 10 122 8 7 10 37 7 95 -5 86 -13 85 -25 -2 -7 -54 -32
-67 -32 -18 0 17 3 26 7 20 4 -6 5 70 2 170 l-5 180 39 0 c38 0 40 2 53 44 7
24 26 56 42 72 20 19 29 38 29 59 0 39 -18 59 -38 43 -11 -10 -17 -8 -28 7 -8
10 -14 25 -14 32 0 22 -20 14 -32 -12 -15 -34 -28 -32 -28 5 l0 30 173 3 c219
4 350 -2 360 -17z m-6008 -23 l130 2 160 -54 160 -53 84 -86 c106 -109 141
-163 252 -387 69 -139 89 -189 89 -221 0 -63 11 -106 25 -100 16 6 45 -24 45
-46 0 -26 -28 -29 -46 -5 -15 20 -16 8 -10 -186 l7 -208 -35 -73 c-47 -98
-138 -219 -241 -321 l-85 -83 42 -63 c23 -34 95 -118 160 -186 123 -128 173
-196 202 -273 14 -39 16 -80 14 -295 -2 -137 1 -295 6 -351 13 -153 6 -184
-64 -259 -33 -35 -61 -74 -64 -87 -3 -13 -10 -48 -16 -78 -22 -102 -124 -229
-248 -311 -84 -55 -156 -85 -261 -106 -67 -14 -84 -14 -199 2 -148 21 -287 16
-432 -14 -52 -11 -121 -20 -153 -21 -55 0 -60 2 -101 43 -60 61 -80 124 -79
252 0 55 4 468 8 918 l7 817 138 0 c134 0 138 1 133 20 -4 15 -9 18 -17 11 -7
-6 -28 -8 -48 -5 -33 6 -36 9 -42 52 -3 24 -6 152 -6 283 0 153 -4 239 -10
239 -5 0 -10 -8 -10 -18 0 -10 -5 -23 -12 -30 -8 -8 -8 -15 0 -24 14 -17 14
-328 0 -345 -7 -9 -5 -26 7 -57 20 -52 16 -71 -15 -79 -19 -5 -21 -2 -16 16 5
21 4 21 -9 4 -14 -20 -22 -14 -35 31 -8 27 -8 27 -9 -5 -1 -42 -22 -95 -28
-70 -3 9 -8 17 -12 17 -7 0 -24 691 -22 885 0 39 1 228 1 420 0 327 2 354 21
413 12 35 26 62 34 62 8 0 26 10 40 23 l26 22 202 -17 c111 -10 261 -17 332
-15z m-12897 2 c-1 -14 -6 -25 -10 -25 -4 0 -8 11 -8 25 0 14 4 25 10 25 5 0
9 -11 8 -25z m18349 -22 c-3 -10 -5 -2 -5 17 0 19 2 27 5 18 2 -10 2 -26 0
-35z m-13477 -405 c0 -16 -3 -19 -11 -11 -6 6 -8 16 -5 22 11 17 16 13 16 -11z
m9211 -48 l-10 -25 0 27 c-1 14 2 35 6 45 7 17 8 17 11 -2 1 -12 -2 -32 -7
-45z m-124 -76 c4 -29 3 -36 -6 -28 -6 6 -14 28 -18 50 -4 29 -3 36 6 28 6 -6
14 -28 18 -50z m1743 -116 c0 -33 -4 -48 -9 -42 -9 8 -4 94 5 94 2 0 4 -23 4
-52z m-10384 -6 c-12 -11 -18 7 -10 30 l8 23 4 -23 c2 -13 1 -26 -2 -30z
m-5326 -156 c-7 -7 -10 7 -11 45 0 29 -2 70 -4 89 -2 19 2 38 8 42 16 10 22
-161 7 -176z m18360 69 c0 -52 -4 -95 -9 -95 -9 0 -13 168 -4 183 11 17 13 2
13 -88z m-4486 66 c3 -5 -1 -14 -8 -20 -16 -13 -32 2 -21 19 8 12 22 13 29 1z
m1136 -131 c0 -64 -3 -80 -15 -80 -12 0 -13 -5 -3 -24 13 -31 4 -56 -21 -56
-29 0 -31 21 -10 107 10 43 19 90 19 106 0 17 5 27 15 27 12 0 15 -16 15 -80z
m-13460 20 c0 -13 -7 -20 -19 -20 -23 0 -50 -35 -52 -65 -1 -23 -18 49 -18 83
-1 20 4 22 44 22 38 0 45 -3 45 -20z m3230 -40 c0 -5 -4 -10 -9 -10 -6 0 -13
5 -16 10 -3 6 1 10 9 10 9 0 16 -4 16 -10z m10044 -52 c-3 -5 -12 -1 -20 9
-20 27 -17 39 6 18 11 -10 17 -22 14 -27z m-16709 12 c24 -9 25 -11 11 -26 -9
-8 -16 -25 -16 -37 0 -12 -4 -29 -10 -37 -8 -13 -10 -13 -14 0 -19 55 -23 89
-13 99 13 13 10 13 42 1z m16032 -32 c-3 -8 -6 -5 -6 6 -1 11 2 17 5 13 3 -3
4 -12 1 -19z m4210 -100 c-2 -13 -4 -5 -4 17 -1 22 1 32 4 23 2 -10 2 -28 0
-40z m-13407 -22 c0 -21 -21 -31 -31 -15 -14 22 -11 29 11 29 11 0 20 -6 20
-14z m190 -11 c0 -8 -4 -15 -10 -15 -5 0 -10 7 -10 15 0 8 5 15 10 15 6 0 10
-7 10 -15z m9840 -35 c0 -27 -4 -50 -10 -50 -13 0 -30 34 -30 63 0 27 7 37 27
37 9 0 13 -15 13 -50z m-10030 -37 c0 -27 3 -65 6 -85 5 -31 4 -38 -10 -38
-12 0 -16 10 -16 39 0 21 -3 59 -6 85 -6 38 -4 46 10 46 12 0 16 -10 16 -47z
m9818 41 c35 -10 26 -26 -10 -19 -39 8 -61 25 -32 25 10 0 29 -3 42 -6z m307
-24 c3 -5 -1 -10 -9 -10 -9 0 -16 5 -16 10 0 6 4 10 9 10 6 0 13 -4 16 -10z
m-193 -59 c-6 -17 -9 -45 -7 -63 3 -24 2 -29 -5 -18 -6 10 -10 11 -10 3 0 -7
-7 -13 -14 -13 -16 0 -10 30 21 98 18 41 29 35 15 -7z m63 -130 c-4 -31 -8
-68 -9 -83 0 -16 -4 -28 -8 -28 -5 0 -15 0 -23 0 -8 0 -15 8 -15 19 0 10 -7
24 -15 31 -8 7 -12 16 -9 21 3 5 0 9 -5 9 -6 0 -11 5 -11 11 0 6 7 8 16 5 20
-8 43 20 44 50 0 26 8 34 27 27 12 -5 14 -17 8 -62z m3402 47 c-3 -8 -6 -5 -6
6 -1 11 2 17 5 13 3 -3 4 -12 1 -19z m-3281 -33 c-3 -9 -11 -13 -16 -10 -8 5
-7 11 1 21 14 18 24 11 15 -11z m-266 1 c0 -11 -19 -15 -25 -6 -3 5 1 10 9 10
9 0 16 -2 16 -4z m-9830 -41 c0 -19 -4 -35 -10 -35 -5 0 -10 16 -10 35 0 19 5
35 10 35 6 0 10 -16 10 -35z m352 -37 c-9 -9 -12 -7 -12 12 0 19 3 21 12 12 9
-9 9 -15 0 -24z m8823 -58 c3 -5 1 -10 -4 -10 -6 0 -11 5 -11 10 0 6 2 10 4
10 3 0 8 -4 11 -10z m-9157 -23 c2 -10 -3 -17 -12 -17 -10 0 -16 9 -16 21 0
24 23 21 28 -4z m343 -94 c-2 -13 -7 -23 -12 -23 -11 0 -12 104 -1 114 8 9 19
-59 13 -91z m8724 65 c-7 -33 -25 -62 -25 -41 0 28 14 73 22 73 6 0 7 -14 3
-32z m878 -43 c-3 -13 -53 -20 -53 -7 0 15 13 23 35 20 11 -2 19 -7 18 -13z
m-9922 -46 c22 -22 21 -42 -3 -47 -20 -4 -48 24 -48 49 0 25 25 24 51 -2z
m-5014 -106 c-2 -16 -4 -3 -4 27 0 30 2 43 4 28 2 -16 2 -40 0 -55z m2633 -4
c0 -6 -4 -7 -10 -4 -5 3 -10 11 -10 16 0 6 5 7 10 4 6 -3 10 -11 10 -16z m-96
-107 c4 -7 1 -12 -8 -12 -13 0 -16 11 -15 48 1 45 2 46 8 12 4 -20 11 -41 15
-48z m-2537 -9 c-2 -16 -4 -3 -4 27 0 30 2 43 4 28 2 -16 2 -40 0 -55z m13930
45 c-3 -8 -6 -5 -6 6 -1 11 2 17 5 13 3 -3 4 -12 1 -19z m233 -54 c0 -8 -4
-14 -10 -14 -5 0 -10 9 -10 21 0 11 5 17 10 14 6 -3 10 -13 10 -21z m-11323
-20 c-3 -3 -12 -4 -19 -1 -8 3 -5 6 6 6 11 1 17 -2 13 -5z m-2840 -116 c-2
-24 -4 -7 -4 37 0 44 2 63 4 43 2 -21 2 -57 0 -80z m2716 105 c-13 -2 -33 -2
-45 0 -13 2 -3 4 22 4 25 0 35 -2 23 -4z m10917 -73 c0 -5 -5 -10 -11 -10 -5
0 -7 5 -4 10 3 6 8 10 11 10 2 0 4 -4 4 -10z m-10973 -77 c-3 -3 -11 -2 -17 2
-8 5 -7 11 2 22 12 15 13 14 16 -1 2 -10 1 -20 -1 -23z m2673 -14 c0 -18 -4
-28 -10 -24 -5 3 -10 20 -10 36 0 18 4 28 10 24 6 -3 10 -20 10 -36z m3029
-108 c1 -61 -5 -49 -12 24 -4 38 -3 53 3 40 5 -11 9 -40 9 -64z m-2934 -3
c-10 -43 -11 -44 -35 -23 -28 25 -25 43 8 48 15 2 28 5 30 6 2 0 0 -14 -3 -31z
m9406 -5 c3 -18 13 -40 20 -50 11 -12 11 -17 2 -20 -7 -3 -15 -20 -19 -39 -8
-41 -34 -47 -34 -6 0 15 -7 39 -14 55 -8 15 -11 27 -5 27 5 0 9 16 9 36 0 28
4 35 17 32 10 -2 20 -16 24 -35z m-12241 -157 c0 -8 -4 -17 -9 -21 -12 -7 -24
12 -16 25 9 15 25 12 25 -4z m5767 -143 c-3 -10 -5 -4 -5 12 0 17 2 24 5 18 2
-7 2 -21 0 -30z m-5746 -66 c-10 -9 -11 -8 -5 6 3 10 9 15 12 12 3 -3 0 -11
-7 -18z m-20 -34 c13 -16 12 -17 -3 -4 -17 13 -22 21 -14 21 2 0 10 -8 17 -17z
m-77 -49 c3 -8 2 -12 -4 -9 -6 3 -10 10 -10 16 0 14 7 11 14 -7z m-4 -61 c27
-41 27 -43 5 -18 -28 32 -49 65 -41 65 3 0 19 -21 36 -47z m19 -77 c-2 -2 -19
14 -38 37 l-34 42 38 -37 c22 -21 37 -39 34 -42z m5831 -110 c0 -8 -4 -18 -10
-21 -5 -3 -10 3 -10 14 0 12 5 21 10 21 6 0 10 -6 10 -14z m-19613 -52 c-3 -3
-12 -4 -19 -1 -8 3 -5 6 6 6 11 1 17 -2 13 -5z m19619 -109 c3 -43 0 -55 -11
-55 -11 0 -15 13 -15 53 0 50 7 73 18 62 3 -3 7 -30 8 -60z m-5886 -69 c0 -3
-4 -8 -10 -11 -5 -3 -10 -1 -10 4 0 6 5 11 10 11 6 0 10 -2 10 -4z m-6153 -12
c-3 -3 -12 -4 -19 -1 -8 3 -5 6 6 6 11 1 17 -2 13 -5z m20195 -101 c33 -59
-30 -103 -67 -47 -13 21 -15 31 -6 50 15 33 52 32 73 -3z m-13524 -115 c1 -19
-7 -44 -18 -58 -18 -23 -20 -23 -20 -5 0 30 20 95 29 95 4 0 8 -15 9 -32z
m6458 -1 c-2 -34 -30 -85 -40 -69 -3 5 0 24 6 43 6 19 12 40 14 47 7 25 21 11
20 -21z m-1096 -183 c0 -19 -4 -33 -8 -30 -8 5 -4 66 4 66 2 0 4 -16 4 -36z
m8370 -33 c0 -11 -4 -23 -10 -26 -6 -4 -10 5 -10 19 0 14 5 26 10 26 6 0 10
-9 10 -19z m-8170 -80 c0 -28 -2 -29 -57 -33 -47 -3 -62 -1 -81 16 -34 30 -10
42 91 45 46 1 47 0 47 -28z m7781 -444 c-8 -8 -11 -7 -11 4 0 20 13 34 18 19
3 -7 -1 -17 -7 -23z m399 -32 c0 -8 -9 -15 -20 -15 -11 0 -20 7 -20 15 0 8 9
15 20 15 11 0 20 -7 20 -15z m498 -162 c2 -9 -7 -13 -27 -13 -30 0 -39 9 -24
24 11 10 46 3 51 -11z m-143 -13 c0 -10 -12 -16 -37 -18 -33 -3 -38 0 -38 18
0 18 5 21 38 18 25 -2 37 -8 37 -18z m-125 -15 c0 -11 -12 -15 -49 -15 -26 0
-76 -3 -111 -7 -51 -5 -62 -4 -58 8 5 14 65 24 171 27 36 2 47 -2 47 -13z
m-245 -15 c0 -22 -39 -19 -43 3 -3 15 1 18 20 15 12 -2 23 -10 23 -18z
m-17079 -500 c29 -43 110 -292 164 -502 l33 -127 55 -12 54 -11 -41 -25 c-22
-13 -41 -30 -41 -36 0 -7 12 -62 26 -122 29 -123 46 -396 26 -409 -23 -14
-100 195 -169 459 l-18 70 -222 3 -221 2 -13 -37 c-7 -21 -22 -84 -34 -140
-22 -106 -19 -119 21 -88 41 31 42 13 3 -62 -56 -106 -71 -115 -96 -55 -19 45
-13 173 12 296 20 91 17 96 -57 118 -21 6 -38 14 -38 18 0 4 30 14 66 21 l67
15 43 149 c90 316 161 452 259 496 65 30 91 25 121 -21z m5711 -7 c28 -46 100
-267 163 -501 16 -62 30 -114 30 -116 0 -3 26 -10 57 -16 l57 -12 -29 -15
c-63 -33 -64 -35 -43 -121 29 -120 48 -259 48 -352 0 -121 -10 -128 -54 -39
-31 64 -59 153 -131 412 l-16 57 -220 0 -219 0 -11 -27 c-12 -32 -58 -246 -54
-251 2 -2 17 4 34 12 16 9 34 16 39 16 12 0 -53 -130 -78 -154 -15 -16 -22
-17 -34 -7 -38 32 -38 155 0 334 16 80 12 87 -58 107 -21 6 -38 14 -38 19 0 5
27 14 60 21 33 7 64 18 68 24 5 6 25 71 45 143 82 298 178 474 273 503 64 19
80 13 111 -37z m-4711 -169 c59 -30 101 -74 90 -93 -11 -17 -75 -13 -136 9
-66 23 -113 24 -203 5 -145 -30 -247 -100 -247 -167 0 -51 37 -116 79 -137 53
-27 73 -30 248 -41 225 -13 319 -45 349 -116 75 -178 -133 -405 -372 -406
-144 0 -264 93 -264 207 0 63 38 57 121 -21 76 -70 176 -82 300 -35 100 38
199 148 185 205 -12 49 -126 67 -387 64 -168 -3 -176 -2 -224 22 -36 18 -57
38 -80 75 -28 46 -30 57 -30 140 0 78 4 97 27 141 26 50 85 111 130 135 68 37
133 49 245 46 101 -3 118 -6 169 -33z m728 15 c82 -9 186 -42 186 -59 0 -4
-12 -12 -26 -19 -59 -26 -153 -41 -271 -41 l-123 0 0 -130 0 -131 48 7 c122
16 358 19 415 5 62 -15 69 -26 35 -59 -39 -35 -69 -41 -287 -48 l-211 -7 0
-129 0 -130 33 7 c54 12 257 73 347 104 231 80 262 91 266 91 11 0 -14 -32
-64 -84 -42 -43 -80 -68 -175 -115 -128 -63 -385 -154 -420 -149 -12 2 -37 27
-59 58 l-38 55 0 143 0 142 -26 0 c-21 0 -58 13 -73 26 -9 8 44 60 67 64 34 6
39 30 41 173 l1 107 -25 0 c-14 0 -39 10 -55 21 l-28 22 39 40 c28 30 50 42
81 48 48 8 189 3 322 -12z m4957 -28 c27 -11 66 -32 86 -47 30 -23 34 -31 29
-56 -7 -35 -36 -77 -54 -78 -7 0 -28 11 -45 24 -48 37 -117 66 -159 66 -82 0
-244 -115 -288 -206 -30 -61 -28 -165 6 -232 43 -87 132 -149 229 -159 69 -7
115 9 164 59 36 35 109 164 99 173 -1 2 -41 -6 -88 -16 -88 -21 -225 -29 -272
-16 -26 7 -26 8 -12 37 9 16 25 32 37 35 12 2 75 16 140 30 177 39 275 48 356
36 96 -15 145 -33 149 -53 3 -16 -6 -18 -80 -18 -46 0 -100 -3 -120 -6 l-38
-7 0 -116 c0 -127 17 -227 49 -290 25 -47 26 -61 8 -85 -13 -18 -15 -18 -36 5
-42 44 -60 89 -86 212 l-6 28 -47 -40 c-101 -84 -196 -110 -297 -81 -83 24
-96 31 -145 87 -55 62 -107 171 -119 251 -14 87 1 211 34 278 44 90 151 170
270 201 63 16 169 9 236 -16z m-3999 -1 c41 -6 91 -22 128 -41 57 -31 60 -34
60 -70 0 -107 -47 -205 -158 -329 -35 -38 -57 -70 -49 -70 30 0 265 -82 342
-119 98 -48 165 -103 165 -136 0 -32 -17 -75 -30 -75 -5 0 -32 14 -59 30 -71
44 -215 105 -369 156 l-134 45 -54 -21 c-30 -11 -59 -20 -64 -20 -38 0 53 159
152 267 59 65 91 112 124 178 24 50 44 95 44 99 0 10 -144 0 -229 -15 -138
-25 -192 -41 -187 -54 3 -8 10 -89 16 -182 25 -388 31 -456 41 -500 18 -83 -1
-84 -31 -2 -69 186 -105 458 -83 622 5 37 9 67 7 67 -1 0 -41 -11 -88 -25
-132 -38 -144 -34 -105 34 45 77 145 127 299 150 145 22 179 23 262 11z
m-4025 -80 c22 -74 36 -306 30 -488 l-5 -174 51 7 c122 15 300 58 438 105 82
27 158 50 169 50 31 0 38 -46 13 -90 -15 -26 -39 -44 -94 -72 -85 -42 -295
-113 -454 -154 l-110 -28 -36 24 c-29 19 -40 37 -60 94 -24 71 -24 73 -21 431
1 198 2 364 2 368 0 5 14 0 32 -10 23 -14 36 -31 45 -63z m6341 11 c45 -13 82
-27 82 -32 0 -5 -18 -20 -39 -35 -38 -25 -44 -26 -125 -19 -47 4 -109 4 -139
1 l-52 -7 8 -112 c8 -99 -7 -624 -17 -634 -2 -2 -11 36 -21 84 -21 105 -31
458 -17 578 5 44 9 81 8 82 -5 6 -265 -41 -348 -64 -80 -21 -100 -23 -113 -13
-22 18 -18 47 9 65 13 9 27 27 30 40 8 30 69 49 286 89 14 2 102 3 195 2 141
-2 184 -6 253 -25z m-10928 -931 c-8 -5 -19 -10 -25 -10 -5 0 -3 5 5 10 8 5
20 10 25 10 6 0 3 -5 -5 -10z m-923 -722 c-3 -8 -6 -5 -6 6 -1 11 2 17 5 13 3
-3 4 -12 1 -19z"/>
<path d="M5861 8214 c0 -11 3 -14 6 -6 3 7 2 16 -1 19 -3 4 -6 -2 -5 -13z"/>
<path d="M6016 7944 c-11 -28 4 -34 92 -34 190 0 527 -54 767 -124 66 -19 121
-33 123 -31 4 3 -208 74 -313 104 -158 45 -497 101 -616 101 -34 0 -49 -5 -53
-16z"/>
<path d="M6025 7820 c11 -35 8 -373 -4 -420 -17 -64 -52 -153 -67 -169 -11
-13 -16 -10 -28 20 l-14 34 -11 -28 c-6 -16 -11 -34 -12 -40 0 -7 -5 1 -9 16
-5 16 -12 97 -15 180 -4 84 -10 203 -15 265 -4 62 -6 122 -3 133 5 17 0 19
-38 19 -24 0 -84 -5 -134 -10 -676 -76 -1297 -358 -1800 -817 -400 -365 -713
-878 -874 -1433 -26 -91 -82 -346 -94 -435 -3 -16 -3 -1 0 33 10 164 79 458
159 680 43 122 193 440 249 530 14 23 24 42 21 42 -23 0 -238 -423 -299 -590
-115 -309 -189 -673 -199 -970 l-3 -85 110 -7 c61 -4 171 -9 245 -12 74 -3
146 -9 160 -14 25 -9 25 -9 -7 -16 -39 -9 -42 -21 -8 -30 49 -12 29 -34 -65
-69 -91 -34 -119 -38 -289 -38 l-150 0 4 -27 c2 -15 7 -67 10 -117 18 -286
107 -655 229 -948 157 -379 416 -731 766 -1042 24 -22 -3 10 -60 70 -401 419
-655 866 -795 1400 -36 134 -86 406 -84 453 1 15 7 -13 15 -62 180 -1155 986
-2113 2094 -2488 271 -91 634 -158 863 -158 69 0 69 0 63 25 -11 45 -7 382 5
432 7 26 25 77 40 112 25 54 31 62 44 51 8 -7 15 -19 15 -26 0 -27 21 -13 27
18 6 30 7 31 15 9 4 -13 10 -83 13 -155 3 -72 9 -194 15 -271 5 -77 8 -149 7
-160 -2 -18 3 -20 63 -18 36 2 133 14 217 28 326 55 656 171 956 336 686 377
1201 988 1453 1724 63 181 104 348 144 585 l9 55 -4 -65 c-13 -170 -83 -472
-158 -680 -76 -209 -150 -365 -265 -560 l-14 -25 18 22 c11 13 49 76 86 140
207 366 343 795 389 1232 6 62 10 114 7 116 -2 2 -62 7 -133 10 -72 3 -155 7
-185 10 -30 3 -117 8 -192 10 -143 4 -200 16 -140 30 40 8 40 17 1 32 -17 7
-28 16 -25 22 4 5 43 25 89 43 l82 33 258 0 257 0 0 50 c0 84 -20 324 -36 435
-46 317 -171 703 -307 948 -162 292 -414 607 -650 814 -60 53 -55 46 32 -42
424 -427 700 -933 831 -1525 16 -71 32 -155 35 -185 3 -33 -4 -10 -20 60 -99
454 -271 846 -531 1208 -426 595 -1075 1031 -1794 1206 -130 31 -328 64 -435
71 -44 3 -93 8 -108 10 -24 4 -27 2 -22 -15z m515 -1691 c271 -14 514 -19 470
-9 -20 4 105 8 288 9 177 0 322 -1 322 -3 0 -2 -75 -122 -166 -267 -91 -144
-177 -282 -191 -306 -14 -24 -30 -40 -35 -36 -7 3 -8 1 -4 -5 8 -13 -27 -72
-285 -477 -98 -154 -193 -296 -210 -315 l-32 -35 38 70 c21 39 108 183 193
320 507 818 623 1007 620 1010 -2 2 -424 8 -938 15 -1039 13 -2354 5 -2347
-14 12 -30 529 -829 667 -1031 86 -126 174 -258 195 -293 24 -39 43 -61 52
-58 7 3 13 3 13 -1 0 -13 -97 -163 -242 -375 -82 -119 -267 -403 -413 -630
l-264 -413 457 -8 c442 -7 1905 -1 2534 12 l308 6 -112 180 c-61 99 -225 362
-363 585 -337 543 -419 683 -353 605 73 -88 502 -770 493 -785 -4 -6 -2 -9 3
-8 9 3 70 -93 350 -539 l52 -83 -327 1 c-184 1 -310 5 -288 9 52 10 -204 5
-440 -9 -119 -7 -550 -9 -1270 -5 -599 4 -1091 7 -1092 8 -1 1 123 197 275
436 265 417 463 714 599 903 l64 88 -44 57 c-97 125 -373 539 -629 941 -149
234 -272 431 -275 438 -4 10 100 13 548 15 305 2 784 4 1064 6 285 1 600 -2
715 -9z m816 -87 c-4 -7 10 -12 38 -14 l44 -3 -94 -145 c-51 -80 -92 -151 -89
-157 2 -7 -1 -12 -7 -10 -6 1 -13 -4 -16 -12 -3 -9 0 -11 8 -6 9 5 11 4 6 -4
-4 -6 -11 -9 -16 -6 -4 3 -22 -17 -39 -43 -33 -51 -38 -68 -19 -56 7 4 8 3 4
-5 -4 -6 -11 -9 -16 -6 -7 4 -180 -253 -180 -269 0 -4 5 -4 11 0 15 9 -24 -62
-53 -96 l-20 -25 16 28 c9 15 23 38 32 52 9 14 15 28 12 31 -3 2 -29 -33 -59
-78 -30 -46 -60 -83 -67 -83 -13 0 -32 -23 -32 -38 0 -5 5 -5 12 -1 7 4 8 3 4
-5 -4 -6 -11 -9 -15 -6 -8 4 -61 -67 -61 -81 0 -4 9 1 21 12 12 10 -2 -18 -31
-64 -29 -45 -55 -80 -58 -78 -2 3 6 19 18 36 12 17 20 33 17 36 -7 7 -48 -66
-42 -76 3 -5 -14 -40 -38 -78 -40 -61 -43 -70 -31 -87 21 -29 16 -41 -6 -15
-38 44 -19 9 71 -131 49 -78 88 -143 86 -145 -3 -3 -14 10 -26 28 -11 18 -21
30 -21 26 0 -16 103 -168 110 -163 5 3 14 -4 20 -16 9 -17 9 -20 0 -14 -8 5
-11 3 -8 -6 3 -8 11 -14 19 -14 7 0 38 -37 68 -83 30 -45 56 -80 59 -78 2 3
-5 17 -15 33 -25 35 -45 73 -39 73 10 0 66 -102 60 -111 -3 -5 98 -171 225
-369 127 -197 231 -361 231 -364 0 -4 -19 -6 -42 -6 -33 0 -39 -3 -28 -11 10
-6 -463 -8 -1485 -3 -825 3 -1501 7 -1503 9 -6 6 601 934 609 930 5 -4 6 2 2
12 -5 14 -3 16 7 6 9 -8 19 -9 31 -2 17 8 18 7 9 -15 -13 -36 -109 -189 -344
-550 -114 -175 -206 -320 -203 -322 2 -2 650 -5 1439 -6 1433 -3 1436 -3 1425
17 -16 30 -194 316 -338 541 -71 111 -129 205 -129 209 0 3 6 3 13 -1 7 -4 9
-3 4 2 -5 5 -14 9 -19 9 -6 0 -13 6 -16 14 -3 9 0 11 8 6 9 -5 11 -4 6 4 -4 6
-11 9 -15 6 -5 -2 -73 97 -152 220 l-144 225 -18 -24 c-34 -48 -239 -371 -258
-407 -10 -21 -32 -52 -49 -70 -16 -19 -30 -36 -30 -40 0 -12 -59 -74 -71 -74
-7 0 -14 -7 -16 -15 -4 -13 -3 -13 6 0 10 13 11 13 11 0 0 -24 -65 -115 -79
-112 -8 2 -11 -3 -8 -11 3 -7 -1 -14 -8 -14 -10 0 -11 5 -4 19 6 10 14 16 20
12 6 -3 8 5 5 19 -3 16 1 27 10 31 8 3 14 11 13 18 -3 26 1 39 11 33 6 -3 10
2 10 12 0 40 385 637 403 626 6 -3 7 -1 3 5 -4 7 -4 18 1 25 10 15 12 57 2 52
-15 -10 -403 600 -393 617 3 4 10 6 15 3 5 -3 6 1 2 10 -4 13 -7 14 -14 3 -6
-10 -11 -10 -20 -1 -9 9 -9 16 2 30 7 10 9 15 4 10 -12 -10 -45 42 -37 61 3
10 1 13 -6 8 -6 -3 -13 -2 -16 3 -4 5 0 8 8 7 19 -3 44 -35 86 -108 17 -32 35
-58 38 -58 4 0 20 -20 35 -45 16 -25 32 -45 36 -45 4 0 21 -24 36 -52 16 -29
59 -101 97 -159 67 -105 78 -127 57 -113 -8 4 -8 0 0 -15 13 -24 23 -28 15 -6
-4 8 -4 15 -1 15 8 0 89 -131 84 -136 -2 -3 -19 18 -37 46 -18 27 -34 50 -37
50 -3 0 2 -11 11 -25 9 -14 14 -31 10 -37 -4 -6 -3 -8 4 -4 6 3 19 -7 28 -24
10 -16 23 -30 28 -30 5 0 6 3 3 7 -4 3 0 11 7 17 8 6 73 103 146 216 72 113
135 205 140 205 4 0 12 4 17 9 5 5 2 6 -6 1 -9 -5 -12 -3 -9 6 3 8 10 14 16
14 5 0 14 4 19 9 5 5 3 6 -4 2 -7 -4 -13 -5 -13 -1 0 3 89 146 198 318 223
352 276 437 271 440 -2 1 -651 0 -1441 -3 l-1438 -5 92 -140 c364 -559 468
-726 468 -749 0 -4 -9 -2 -19 4 -25 13 -34 13 -26 0 3 -5 4 -10 0 -10 -6 0
-62 85 -387 589 -125 195 -228 358 -228 362 0 5 309 10 688 11 378 2 1049 5
1491 7 563 2 802 0 797 -7z m-2346 -127 c69 0 604 4 1189 9 900 7 1062 6 1055
-5 -28 -48 -271 -409 -291 -432 -46 -57 -21 -2 88 189 61 107 110 196 108 197
-2 1 -526 -1 -1164 -5 -755 -5 -1189 -5 -1244 2 -47 5 -87 8 -89 5 -5 -5 169
-280 246 -390 50 -70 338 -515 436 -672 28 -46 53 -83 56 -83 3 0 14 15 24 33
94 161 228 337 277 362 16 9 27 20 24 24 -2 5 2 14 10 21 8 7 15 9 15 4 0 -5
7 2 16 14 8 12 20 22 25 22 6 0 -7 -20 -29 -45 -86 -97 -332 -462 -332 -491 0
-18 198 -311 278 -412 144 -181 178 -230 68 -99 -21 26 -43 44 -49 40 -5 -3
-7 -1 -4 4 4 6 0 13 -8 17 -8 3 -15 13 -15 22 0 10 -3 14 -6 11 -4 -3 -15 -2
-25 4 -26 14 -147 172 -210 274 -28 47 -55 85 -58 85 -4 0 -56 -77 -116 -172
-161 -251 -306 -474 -426 -654 -58 -88 -125 -190 -148 -228 l-43 -69 39 7 c91
15 320 16 1363 9 608 -5 1106 -8 1107 -7 2 0 -36 68 -83 150 -111 192 -152
273 -130 255 18 -15 292 -420 302 -446 5 -13 -53 -15 -482 -14 -269 0 -786 4
-1149 8 -408 5 -732 5 -848 -1 -104 -6 -191 -8 -194 -5 -2 3 13 32 35 64 21
32 68 105 104 163 36 58 172 269 303 470 131 201 260 401 288 445 l50 79 -23
41 c-13 22 -115 182 -228 355 -113 173 -257 396 -320 495 -119 186 -185 289
-217 338 l-18 28 159 -8 c87 -4 215 -8 284 -8z m994 -413 c-56 -86 -67 -102
-72 -97 -3 2 8 24 24 47 15 24 27 47 26 52 -4 13 19 36 30 30 5 -3 2 -17 -8
-32z m1097 -39 c-5 -10 -17 -27 -26 -38 -16 -19 -17 -19 -3 5 26 46 29 50 34
50 3 0 0 -8 -5 -17z m-1261 -203 c-17 -22 -34 -40 -37 -40 -2 0 10 18 27 40
17 22 34 40 37 40 2 0 -10 -18 -27 -40z m3107 -77 c-3 -10 -5 -4 -5 12 0 17 2
24 5 18 2 -7 2 -21 0 -30z m10 -65 c-3 -8 -6 -5 -6 6 -1 11 2 17 5 13 3 -3 4
-12 1 -19z m-6060 -90 c-2 -13 -4 -3 -4 22 0 25 2 35 4 23 2 -13 2 -33 0 -45z
m-10 -95 c-3 -10 -5 -4 -5 12 0 17 2 24 5 18 2 -7 2 -21 0 -30z m0 -75 c-2
-13 -4 -5 -4 17 -1 22 1 32 4 23 2 -10 2 -28 0 -40z m6080 -415 c-2 -16 -4 -5
-4 22 0 28 2 40 4 28 2 -13 2 -35 0 -50z m-6070 -5 c-2 -13 -4 -5 -4 17 -1 22
1 32 4 23 2 -10 2 -28 0 -40z m3893 -8 c6 -11 8 -20 6 -20 -3 0 -10 9 -16 20
-6 11 -8 20 -6 20 3 0 10 -9 16 -20z m1 -42 c11 -21 11 -22 -4 -9 -10 7 -17
17 -17 22 0 15 9 10 21 -13z m-835 -460 c26 -40 52 -80 58 -88 9 -13 9 -13 -5
-3 -9 7 -19 10 -22 7 -3 -4 -11 6 -18 22 -13 33 -24 54 -52 102 -36 61 -7 32
39 -40z"/>
<path d="M4523 6023 c-62 -2 -113 -7 -113 -11 0 -4 75 -6 166 -4 92 2 165 4
163 6 -9 7 -112 11 -216 9z"/>
<path d="M4788 6013 c12 -2 30 -2 40 0 9 3 -1 5 -23 4 -22 0 -30 -2 -17 -4z"/>
<path d="M4938 6013 c12 -2 30 -2 40 0 9 3 -1 5 -23 4 -22 0 -30 -2 -17 -4z"/>
<path d="M4626 5672 c20 -31 41 -61 47 -67 6 -5 0 6 -12 25 -12 19 -28 47 -34
62 -6 15 -17 30 -24 32 -7 3 3 -20 23 -52z"/>
<path d="M4716 5535 c21 -30 39 -53 41 -51 5 4 -66 106 -73 106 -2 0 12 -25
32 -55z"/>
<path d="M4812 5390 c7 -11 17 -20 22 -20 5 0 1 9 -9 20 -10 11 -20 20 -22 20
-2 0 2 -9 9 -20z"/>
<path d="M6855 5159 c-4 -6 -5 -12 -2 -15 2 -3 7 2 10 11 7 17 1 20 -8 4z"/>
<path d="M6742 4980 c-18 -29 -15 -38 4 -12 9 13 14 25 12 27 -2 2 -9 -5 -16
-15z"/>
<path d="M6551 4644 c-9 -20 -15 -24 -20 -15 -6 8 -11 9 -15 3 -3 -6 -1 -12 6
-14 9 -3 8 -10 -4 -26 -8 -12 -19 -19 -24 -14 -5 4 -6 3 -2 -2 5 -5 -4 -30
-18 -55 -38 -66 -15 -39 45 53 28 44 50 84 48 89 -1 5 -9 -3 -16 -19z"/>
<path d="M6700 4492 c6 -13 14 -21 18 -18 3 4 -2 14 -12 24 -18 16 -18 16 -6
-6z"/>
<path d="M6860 4241 c0 -6 4 -13 10 -16 6 -3 7 1 4 9 -7 18 -14 21 -14 7z"/>
<path d="M4821 3978 c-14 -23 -14 -23 8 -4 22 20 25 26 13 26 -4 0 -13 -10
-21 -22z"/>
<path d="M4755 3878 c-16 -25 -21 -37 -11 -29 16 14 51 71 43 71 -3 0 -17 -19
-32 -42z"/>
<path d="M4710 3808 c-12 -22 -12 -22 6 -6 10 10 15 20 12 24 -4 3 -12 -5 -18
-18z"/>
<path d="M4658 3733 c-35 -54 -52 -86 -40 -79 6 4 17 19 24 34 8 15 22 39 32
55 10 15 16 27 13 27 -2 0 -15 -17 -29 -37z"/>
<path d="M4421 3366 c-8 -10 -3 -11 19 -8 35 5 37 8 10 15 -10 3 -24 -1 -29
-7z"/>
<path d="M4570 3361 c52 -4 109 -3 125 0 17 4 -26 7 -95 6 l-125 -1 95 -5z"/>
<path d="M4813 3363 c15 -2 39 -2 55 0 15 2 2 4 -28 4 -30 0 -43 -2 -27 -4z"/>
<path d="M7020 7740 c8 -5 20 -10 25 -10 6 0 3 5 -5 10 -8 5 -19 10 -25 10 -5
0 -3 -5 5 -10z"/>
<path d="M4300 7422 c-581 -341 -1033 -850 -1296 -1457 -148 -343 -237 -733
-233 -1019 l2 -81 8 100 c53 603 303 1220 692 1705 193 241 504 521 787 709
94 63 118 81 109 81 -2 0 -33 -17 -69 -38z"/>
<path d="M2358 4753 c6 -2 18 -2 25 0 6 3 1 5 -13 5 -14 0 -19 -2 -12 -5z"/>
<path d="M2578 4743 c7 -3 16 -2 19 1 4 3 -2 6 -13 5 -11 0 -14 -3 -6 -6z"/>
<path d="M8868 4653 c7 -3 16 -2 19 1 4 3 -2 6 -13 5 -11 0 -14 -3 -6 -6z"/>
<path d="M9328 4623 c6 -2 18 -2 25 0 6 3 1 5 -13 5 -14 0 -19 -2 -12 -5z"/>
<path d="M9067 4453 c-85 -677 -359 -1270 -813 -1763 -169 -184 -437 -416
-624 -542 -120 -81 -147 -104 -75 -63 91 51 241 153 356 242 146 113 419 385
533 533 342 441 554 920 620 1396 16 115 32 334 25 334 -3 0 -12 -62 -22 -137z"/>
<path d="M3915 2390 c10 -11 20 -20 23 -20 3 0 -3 9 -13 20 -10 11 -20 20 -23
20 -3 0 3 -9 13 -20z"/>
<path d="M7474 2044 c-18 -14 -18 -15 4 -4 12 6 22 13 22 15 0 8 -5 6 -26 -11z"/>
<path d="M4940 1727 c10 -11 246 -78 375 -107 133 -30 367 -63 531 -75 91 -6
91 -6 96 18 l5 25 -156 6 c-327 14 -503 42 -831 132 -14 4 -23 4 -20 1z"/>
<path d="M6091 1304 c0 -11 3 -14 6 -6 3 7 2 16 -1 19 -3 4 -6 -2 -5 -13z"/>
<path d="M29650 6188 c-80 -220 -100 -311 -100 -475 0 -98 -4 -125 -31 -210
-17 -53 -34 -123 -37 -155 l-5 -58 36 -15 c27 -11 74 -15 177 -15 l141 0 24
55 25 55 -29 147 c-16 82 -41 225 -56 318 -15 94 -35 216 -46 273 -10 57 -19
105 -19 108 0 2 -15 4 -34 4 -29 0 -36 -5 -46 -32z m110 -789 c0 -5 -4 -9 -10
-9 -5 0 -10 7 -10 16 0 8 5 12 10 9 6 -3 10 -10 10 -16z"/>
<path d="M29311 5940 c-15 -70 -13 -107 3 -55 20 62 26 105 17 105 -5 0 -14
-23 -20 -50z"/>
<path d="M30287 5973 c-4 -3 -7 -13 -7 -22 1 -13 3 -13 11 2 11 19 8 33 -4 20z"/>
<path d="M29260 5608 c0 -36 4 -35 14 5 4 16 2 27 -4 27 -5 0 -10 -14 -10 -32z"/>
<path d="M30290 5140 c-7 -56 -9 -104 -6 -108 11 -11 46 41 39 58 -8 20 -8 35
1 98 6 42 5 52 -6 52 -11 0 -18 -26 -28 -100z"/>
<path d="M29533 4750 c-91 -24 -107 -34 -138 -93 l-27 -48 17 -122 c20 -144
19 -124 17 -314 -2 -153 -12 -189 -31 -115 -10 36 -12 108 -8 265 1 60 -2 80
-13 87 -11 7 -17 5 -21 -8 -10 -27 -28 -130 -35 -207 -4 -38 -12 -73 -18 -77
-8 -5 -7 -11 2 -20 13 -13 16 -88 6 -149 -5 -31 -11 -38 -38 -43 -27 -6 -29
-8 -13 -17 10 -6 29 -8 41 -5 18 4 22 11 19 29 -6 30 15 109 27 102 5 -3 11
-18 15 -34 6 -27 10 -29 43 -28 31 2 37 -2 42 -23 4 -15 13 -24 23 -24 12 1
17 -6 18 -25 l1 -26 8 25 c4 14 8 53 9 88 1 63 13 102 31 102 6 0 10 -24 10
-54 0 -58 7 -86 21 -86 5 0 9 8 9 18 0 9 5 24 11 32 8 11 9 4 5 -30 -4 -36 -2
-42 7 -30 7 8 22 14 33 12 33 -5 36 54 8 137 -13 36 -23 74 -24 84 0 25 20 21
22 -5 1 -13 4 13 7 57 3 44 2 127 -3 185 -6 71 -5 131 3 186 16 118 13 195 -8
193 -3 0 -38 -9 -78 -19z"/>
<path d="M29995 4649 c-4 -6 -4 -13 -1 -16 8 -8 36 5 36 17 0 13 -27 13 -35
-1z"/>
<path d="M28942 4608 c-15 -15 -16 -38 -2 -38 12 0 23 25 18 40 -2 7 -7 7 -16
-2z"/>
<path d="M29151 4423 c-66 -32 -118 -159 -105 -256 6 -39 3 -50 -11 -61 -39
-28 9 -66 83 -66 42 0 82 23 82 47 0 10 6 13 16 9 15 -6 15 -4 2 16 -8 13 -27
44 -42 71 l-28 47 25 0 c34 0 57 -34 57 -82 0 -42 9 -47 33 -20 22 24 6 85
-33 124 -30 30 -53 34 -94 18 -25 -9 -26 -8 -26 26 0 66 23 92 103 118 22 7
13 26 -11 26 -9 0 -32 -8 -51 -17z"/>
<path d="M13555 7540 c-3 -5 -2 -10 4 -10 5 0 13 5 16 10 3 6 2 10 -4 10 -5 0
-13 -4 -16 -10z"/>
<path d="M13397 7323 c-19 -35 -25 -149 -7 -138 6 3 10 20 10 36 0 17 5 39 11
50 5 11 9 34 7 52 l-3 32 -18 -32z"/>
<path d="M13795 7279 c-4 -6 -5 -12 -2 -15 2 -3 7 2 10 11 7 17 1 20 -8 4z"/>
<path d="M13215 6550 c3 -5 8 -10 11 -10 2 0 4 5 4 10 0 6 -5 10 -11 10 -5 0
-7 -4 -4 -10z"/>
<path d="M13160 6123 c0 -28 3 -34 10 -23 13 20 13 47 0 55 -6 4 -10 -9 -10
-32z"/>
<path d="M15076 7081 c-6 -10 22 -37 29 -29 8 7 -5 38 -15 38 -5 0 -11 -4 -14
-9z"/>
<path d="M14950 6780 c0 -22 7 -25 29 -11 16 10 6 31 -15 31 -8 0 -14 -9 -14
-20z"/>
<path d="M16650 5938 c0 -46 3 -59 11 -51 7 7 12 29 12 50 -1 57 -2 63 -13 63
-6 0 -10 -27 -10 -62z"/>
<path d="M16852 5844 c3 -17 21 -21 26 -6 1 5 -4 12 -13 16 -11 4 -15 1 -13
-10z"/>
<path d="M16727 5833 c-23 -22 18 -81 48 -70 18 7 20 48 3 65 -13 13 -41 16
-51 5z"/>
<path d="M16650 5669 l0 -160 30 21 c34 24 38 45 11 59 -16 9 -18 21 -17 88 1
49 6 78 14 81 18 6 15 22 -4 22 -12 0 -15 6 -10 25 5 18 2 25 -9 25 -13 0 -15
-24 -15 -161z"/>
<path d="M15125 5490 l-50 -7 53 -1 c29 -1 52 2 52 8 0 6 -1 9 -2 8 -2 0 -25
-4 -53 -8z"/>
<path d="M15198 5493 c7 -3 16 -2 19 1 4 3 -2 6 -13 5 -11 0 -14 -3 -6 -6z"/>
<path d="M15238 5493 c6 -2 18 -2 25 0 6 3 1 5 -13 5 -14 0 -19 -2 -12 -5z"/>
<path d="M16373 5455 c0 -27 2 -38 4 -22 2 15 2 37 0 50 -2 12 -4 0 -4 -28z"/>
<path d="M14898 5473 c7 -3 16 -2 19 1 4 3 -2 6 -13 5 -11 0 -14 -3 -6 -6z"/>
<path d="M16651 5444 c13 -16 39 -19 39 -5 0 5 -11 11 -25 13 -20 4 -23 3 -14
-8z"/>
<path d="M16877 5245 c-3 -7 0 -21 8 -31 11 -15 15 -16 29 -5 22 18 20 26 -8
39 -19 8 -25 8 -29 -3z"/>
<path d="M14862 5188 c-12 -12 -17 -48 -6 -48 18 0 44 24 44 40 0 22 -20 26
-38 8z"/>
<path d="M16647 5163 c-4 -3 -7 -33 -7 -65 0 -50 3 -58 17 -56 13 2 17 -6 18
-39 1 -29 -3 -43 -12 -43 -7 0 -13 9 -13 20 0 11 -4 20 -10 20 -6 0 -8 -44 -4
-120 5 -118 21 -242 23 -187 0 15 6 27 11 27 6 0 10 7 10 15 0 8 5 24 12 34 6
10 8 26 4 36 -5 14 -9 15 -21 5 -13 -11 -15 -4 -15 48 0 33 -3 69 -7 79 -7 17
-5 17 17 2 32 -19 85 -25 71 -6 -6 6 -21 25 -35 42 -19 24 -21 33 -12 48 9 15
6 22 -16 41 -26 24 -22 46 9 46 17 0 16 11 -3 38 -16 23 -26 27 -37 15z"/>
<path d="M16720 5094 c0 -14 3 -14 15 -4 8 7 15 14 15 16 0 2 -7 4 -15 4 -8 0
-15 -7 -15 -16z"/>
<path d="M15048 5043 c6 -2 18 -2 25 0 6 3 1 5 -13 5 -14 0 -19 -2 -12 -5z"/>
<path d="M14905 5010 c-3 -5 1 -10 10 -10 9 0 13 5 10 10 -3 6 -8 10 -10 10
-2 0 -7 -4 -10 -10z"/>
<path d="M15374 4935 c-8 -20 4 -35 26 -35 25 0 35 17 20 35 -16 19 -39 19
-46 0z"/>
<path d="M15072 4740 c0 -14 2 -19 5 -12 2 6 2 18 0 25 -3 6 -5 1 -5 -13z"/>
<path d="M16372 4740 c0 -14 2 -19 5 -12 2 6 2 18 0 25 -3 6 -5 1 -5 -13z"/>
<path d="M16370 4590 c0 -64 5 -74 20 -37 8 21 9 20 11 -8 1 -16 1 -36 0 -42
-1 -7 3 -13 9 -13 5 0 10 -6 10 -14 0 -8 6 -17 13 -19 6 -3 2 -6 -10 -6 -23
-1 -34 -21 -12 -21 8 0 8 -4 0 -14 -10 -11 -7 -18 11 -30 l23 -16 -21 -6 c-20
-5 -21 -7 -7 -35 8 -16 11 -38 8 -50 -4 -12 -2 -24 4 -28 8 -6 7 -17 -3 -43
-12 -28 -13 -42 -3 -75 19 -64 58 -89 151 -96 87 -8 86 -10 25 58 -52 56 -110
199 -141 347 -15 75 -32 147 -37 160 l-10 23 0 -23 c-1 -14 -6 -22 -13 -19 -8
2 -12 16 -10 35 2 18 -1 32 -7 32 -7 0 -11 -24 -11 -60z m105 -480 c3 -5 1
-10 -4 -10 -6 0 -11 5 -11 10 0 6 2 10 4 10 3 0 8 -4 11 -10z"/>
<path d="M16653 4593 c-1 -18 4 -33 9 -33 6 0 8 6 5 14 -3 8 2 16 14 19 26 7
24 24 -4 29 -20 4 -23 0 -24 -29z"/>
<path d="M16657 4534 c-11 -11 -8 -112 4 -119 7 -5 8 5 3 30 -6 34 -5 37 14
31 24 -8 40 11 17 20 -9 4 -20 15 -24 26 -4 10 -10 16 -14 12z"/>
<path d="M15910 4379 c0 -5 5 -7 10 -4 6 3 10 8 10 11 0 2 -4 4 -10 4 -5 0
-10 -5 -10 -11z"/>
<path d="M16657 4353 c-10 -20 -6 -72 6 -82 11 -9 14 -2 15 34 0 41 -11 67
-21 48z"/>
<path d="M16662 4155 c0 -16 2 -22 5 -12 2 9 2 23 0 30 -3 6 -5 -1 -5 -18z"/>
<path d="M16372 4110 c0 -19 2 -27 5 -17 2 9 2 25 0 35 -3 9 -5 1 -5 -18z"/>
<path d="M16662 4070 c0 -14 2 -19 5 -12 2 6 2 18 0 25 -3 6 -5 1 -5 -13z"/>
<path d="M15531 4064 c-19 -22 -7 -28 51 -29 60 0 76 19 23 29 -20 4 -42 9
-48 11 -7 2 -18 -3 -26 -11z"/>
<path d="M15198 4033 c6 -2 18 -2 25 0 6 3 1 5 -13 5 -14 0 -19 -2 -12 -5z"/>
<path d="M15350 4030 c0 -5 16 -10 36 -10 21 0 33 4 29 10 -3 6 -19 10 -36 10
-16 0 -29 -4 -29 -10z"/>
<path d="M15722 3945 c0 -16 2 -22 5 -12 2 9 2 23 0 30 -3 6 -5 -1 -5 -18z"/>
<path d="M22460 6021 c0 -18 18 -21 30 -6 10 13 9 15 -9 15 -11 0 -21 -4 -21
-9z"/>
<path d="M23110 5938 c1 -59 2 -61 13 -34 14 31 11 96 -4 96 -5 0 -9 -28 -9
-62z"/>
<path d="M23310 5847 c0 -19 16 -31 24 -18 3 5 -1 14 -9 21 -12 10 -15 10 -15
-3z"/>
<path d="M23185 5829 c-10 -16 3 -56 20 -63 37 -14 62 33 33 62 -15 15 -45 16
-53 1z"/>
<path d="M23109 5813 c-5 -106 -5 -303 1 -303 10 0 60 47 60 57 0 5 -9 14 -19
20 -17 10 -19 23 -17 86 1 45 7 81 15 91 11 14 11 16 -3 16 -10 0 -16 9 -16
25 0 28 -19 35 -21 8z"/>
<path d="M22833 5450 c0 -30 2 -43 4 -27 2 15 2 39 0 55 -2 15 -4 2 -4 -28z"/>
<path d="M22811 5454 c0 -11 3 -14 6 -6 3 7 2 16 -1 19 -3 4 -6 -2 -5 -13z"/>
<path d="M23100 5450 c0 -8 24 -20 41 -20 6 0 8 4 5 9 -8 12 -46 21 -46 11z"/>
<path d="M23175 5430 c-3 -5 -1 -10 4 -10 6 0 11 5 11 10 0 6 -2 10 -4 10 -3
0 -8 -4 -11 -10z"/>
<path d="M23334 5245 c-6 -16 12 -45 27 -45 5 0 13 8 18 19 8 15 6 20 -15 30
-20 9 -26 8 -30 -4z"/>
<path d="M23097 5163 c-4 -3 -7 -33 -7 -65 0 -50 3 -59 18 -57 30 3 35 -1 23
-15 -8 -9 -8 -21 -1 -40 7 -20 6 -26 -4 -26 -8 0 -16 10 -19 22 -4 12 -9 19
-13 15 -11 -11 -5 -251 6 -255 6 -2 11 -20 11 -40 2 -31 3 -32 6 -9 2 15 9 27
14 27 5 0 9 11 9 24 0 13 4 26 10 28 5 2 7 13 3 26 -5 20 -7 21 -22 8 -15 -13
-16 -8 -16 64 -1 76 0 78 20 67 11 -6 30 -12 42 -14 l22 -2 -21 35 c-11 19
-24 37 -29 39 -5 3 -3 15 4 26 10 18 8 24 -17 46 -23 20 -26 27 -15 34 8 5 20
9 27 9 16 0 15 6 -4 35 -16 25 -34 31 -47 18z"/>
<path d="M23175 5101 c-6 -11 9 -23 19 -14 9 9 7 23 -3 23 -6 0 -12 -4 -16 -9z"/>
<path d="M22832 4740 c0 -14 2 -19 5 -12 2 6 2 18 0 25 -3 6 -5 1 -5 -13z"/>
<path d="M22830 4590 c0 -64 5 -74 20 -37 7 18 9 15 9 -20 1 -24 6 -43 11 -43
6 0 10 -6 10 -14 0 -8 6 -17 13 -19 6 -3 2 -6 -10 -6 -23 -1 -33 -21 -11 -21
9 0 9 -3 0 -12 -9 -9 -8 -16 4 -30 15 -16 15 -18 1 -24 -15 -5 -15 -9 -1 -35
10 -21 12 -34 5 -48 -8 -14 -7 -22 4 -31 9 -8 12 -17 7 -24 -32 -40 -14 -126
33 -161 23 -17 49 -24 108 -29 l79 -6 -32 40 c-17 22 -36 43 -42 46 -26 16
-95 195 -116 299 -12 61 -28 133 -36 160 -11 43 -14 47 -20 27 -11 -32 -27
-17 -19 18 3 19 1 30 -6 30 -7 0 -11 -22 -11 -60z m105 -480 c3 -5 1 -10 -4
-10 -6 0 -11 5 -11 10 0 6 2 10 4 10 3 0 8 -4 11 -10z"/>
<path d="M23110 4594 c0 -19 4 -34 10 -34 5 0 7 6 4 14 -3 8 3 16 15 19 29 7
26 24 -4 29 -23 5 -25 2 -25 -28z"/>
<path d="M23107 4533 c-9 -8 -9 -86 -1 -107 12 -31 25 -16 18 20 -6 33 -5 36
14 30 28 -9 38 10 12 24 -11 6 -20 17 -20 25 0 16 -12 20 -23 8z"/>
<path d="M23116 4353 c-8 -8 -8 -56 0 -77 11 -29 21 -16 22 29 0 43 -8 62 -22
48z"/>
<path d="M23110 4155 c0 -8 5 -15 10 -15 6 0 10 7 10 15 0 8 -4 15 -10 15 -5
0 -10 -7 -10 -15z"/>
<path d="M22832 4110 c0 -19 2 -27 5 -17 2 9 2 25 0 35 -3 9 -5 1 -5 -18z"/>
<path d="M23110 4070 c0 -11 5 -20 10 -20 6 0 10 9 10 20 0 11 -4 20 -10 20
-5 0 -10 -9 -10 -20z"/>
<path d="M18663 6765 c0 -27 2 -38 4 -22 2 15 2 37 0 50 -2 12 -4 0 -4 -28z"/>
<path d="M18800 6620 c0 -11 4 -20 9 -20 5 0 11 9 14 20 3 13 0 20 -9 20 -8 0
-14 -9 -14 -20z"/>
<path d="M18745 6350 c3 -5 8 -10 11 -10 2 0 4 5 4 10 0 6 -5 10 -11 10 -5 0
-7 -4 -4 -10z"/>
<path d="M18580 5940 c0 -15 -5 -31 -11 -37 -6 -6 -9 -19 -7 -29 3 -16 6 -14
24 11 18 26 19 33 7 55 l-13 25 0 -25z"/>
<path d="M18400 5730 c-8 -5 -10 -10 -5 -10 6 0 17 5 25 10 8 5 11 10 5 10 -5
0 -17 -5 -25 -10z"/>
<path d="M18475 5600 c-8 -14 3 -30 21 -30 8 0 14 9 14 20 0 21 -24 28 -35 10z"/>
<path d="M11400 6995 c0 -16 27 -32 37 -21 7 7 -16 36 -28 36 -5 0 -9 -7 -9
-15z"/>
<path d="M12380 6835 c0 -9 6 -12 15 -9 8 4 15 10 15 15 0 5 -7 9 -15 9 -8 0
-15 -7 -15 -15z"/>
<path d="M11662 6800 c-12 -5 -27 -21 -34 -35 -7 -16 -17 -24 -26 -20 -13 5 6
-33 50 -97 23 -33 23 -38 -2 -38 -33 0 -60 35 -60 80 0 42 -9 50 -30 25 -17
-21 -5 -79 25 -112 21 -25 30 -28 79 -27 62 2 67 -6 45 -63 -16 -44 -49 -73
-91 -79 -44 -8 -41 -24 5 -24 93 0 163 127 149 268 -4 44 -2 50 17 55 28 7 27
33 -1 51 -30 19 -98 27 -126 16z"/>
<path d="M11872 6268 c-14 -14 -16 -38 -3 -38 5 0 14 7 21 15 17 20 0 41 -18
23z"/>
<path d="M12563 5483 c9 -2 23 -2 30 0 6 3 -1 5 -18 5 -16 0 -22 -2 -12 -5z"/>
<path d="M12368 5473 c6 -2 18 -2 25 0 6 3 1 5 -13 5 -14 0 -19 -2 -12 -5z"/>
<path d="M12343 5193 c-7 -2 -13 -16 -13 -30 0 -24 1 -25 23 -11 40 27 32 59
-10 41z"/>
<path d="M12380 5010 c0 -5 5 -10 10 -10 6 0 10 5 10 10 0 6 -4 10 -10 10 -5
0 -10 -4 -10 -10z"/>
<path d="M12455 4380 c-3 -5 -1 -10 4 -10 6 0 11 5 11 10 0 6 -2 10 -4 10 -3
0 -8 -4 -11 -10z"/>
<path d="M21246 6067 c3 -10 9 -15 12 -12 3 3 0 11 -7 18 -10 9 -11 8 -5 -6z"/>
<path d="M21151 5964 c0 -12 6 -24 14 -28 8 -3 15 -1 15 4 0 6 -4 10 -9 10 -5
0 -12 8 -14 18 -4 13 -5 12 -6 -4z"/>
<path d="M21308 5903 c12 -2 32 -2 45 0 12 2 2 4 -23 4 -25 0 -35 -2 -22 -4z"/>
<path d="M21274 5776 c-8 -22 3 -33 18 -18 9 9 9 15 0 24 -9 9 -13 7 -18 -6z"/>
<path d="M21855 5680 c-3 -5 -1 -10 4 -10 6 0 11 5 11 10 0 6 -2 10 -4 10 -3
0 -8 -4 -11 -10z"/>
<path d="M21200 5460 c0 -5 5 -10 10 -10 6 0 10 5 10 10 0 6 -4 10 -10 10 -5
0 -10 -4 -10 -10z"/>
<path d="M21835 5167 c-4 -10 -5 -21 -1 -24 10 -10 18 4 13 24 -4 17 -4 17
-12 0z"/>
<path d="M21131 5115 c33 -46 53 -63 27 -22 -8 12 -21 32 -29 45 -8 12 -18 22
-22 22 -5 0 6 -20 24 -45z"/>
<path d="M21100 5102 c0 -5 10 -17 21 -28 22 -19 22 -19 10 3 -12 24 -31 39
-31 25z"/>
<path d="M21617 4493 c-4 -3 -7 -17 -7 -29 0 -13 -4 -26 -10 -29 -12 -8 -13
-35 -1 -35 16 0 44 51 33 62 -6 6 -8 17 -5 24 5 15 1 18 -10 7z"/>
<path d="M21435 4270 c-3 -6 1 -7 9 -4 18 7 21 14 7 14 -6 0 -13 -4 -16 -10z"/>
<path d="M21510 4130 c0 -11 7 -20 15 -20 8 0 15 9 15 20 0 11 -7 20 -15 20
-8 0 -15 -9 -15 -20z"/>
<path d="M27971 6009 c-7 -16 -11 -35 -8 -42 2 -7 1 -39 -4 -72 -5 -36 -4 -64
1 -69 15 -15 19 -5 31 98 12 103 4 138 -20 85z"/>
<path d="M27926 5628 c-22 -77 -47 -209 -42 -217 11 -16 43 -13 50 5 3 8 1 24
-4 34 -13 25 -13 30 5 30 12 0 15 15 15 74 0 41 -5 78 -10 81 -6 3 -12 0 -14
-7z"/>
<path d="M27742 5500 c7 -10 14 -18 15 -16 6 6 -9 36 -18 36 -5 0 -4 -9 3 -20z"/>
<path d="M27880 5300 c0 -43 3 -50 20 -50 15 0 20 7 20 28 0 42 -11 72 -26 72
-10 0 -14 -14 -14 -50z"/>
<path d="M27660 5301 c0 -9 52 -22 59 -15 6 6 -1 11 -31 18 -16 3 -28 2 -28
-3z"/>
<path d="M27809 5228 c-7 -13 -15 -25 -19 -28 -4 -3 -9 -21 -12 -40 -5 -30 -3
-36 12 -36 14 0 16 4 9 12 -7 8 -6 14 1 19 6 4 9 12 7 18 -2 7 2 27 9 45 15
37 11 43 -7 10z"/>
<path d="M27855 5128 c-4 -13 -14 -34 -22 -47 -12 -19 -17 -21 -24 -10 -6 10
-8 7 -7 -11 2 -14 9 -31 16 -38 6 -7 12 -20 12 -28 0 -13 4 -15 30 -18 6 -1
12 35 15 87 4 83 -6 114 -20 65z"/>
<path d="M27826 4875 c-4 -11 1 -15 19 -15 29 0 41 15 19 24 -24 9 -31 7 -38
-9z"/>
<path d="M27796 4713 c-26 -198 -24 -193 -55 -194 l-26 -1 25 -7 c22 -7 25
-12 22 -50 -6 -71 20 -45 49 50 21 67 27 111 30 209 3 107 2 125 -12 128 -13
2 -18 -21 -33 -135z"/>
<path d="M27972 4710 c0 -14 2 -19 5 -12 2 6 2 18 0 25 -3 6 -5 1 -5 -13z"/>
<path d="M27750 4390 c0 -11 7 -20 15 -20 8 0 15 9 15 20 0 11 -7 20 -15 20
-8 0 -15 -9 -15 -20z"/>
<path d="M27730 4280 c0 -21 -5 -30 -17 -30 -15 0 -14 -2 2 -20 9 -10 18 -34
20 -52 3 -38 28 -46 33 -10 2 13 10 26 18 29 12 4 11 11 -5 38 -11 19 -17 43
-14 54 4 16 1 21 -16 21 -17 0 -21 -6 -21 -30z"/>
<path d="M31516 6127 c-3 -12 -6 -31 -6 -42 1 -20 1 -20 15 -1 17 22 20 52 6
60 -5 3 -11 -4 -15 -17z"/>
<path d="M31688 5908 c-1 -143 -4 -210 -7 -163 l-6 80 -8 -80 c-6 -59 -14 -86
-29 -102 -16 -17 -19 -29 -14 -58 4 -19 11 -33 15 -30 12 7 21 -60 27 -212 l6
-132 -36 -18 c-46 -21 -46 -30 0 -25 l37 4 -7 -73 c-9 -113 -2 -486 9 -498 6
-5 10 181 6 247 -2 36 1 43 22 51 24 9 24 10 31 212 5 128 11 209 19 217 7 9
23 12 44 9 19 -3 33 -1 33 4 0 6 9 7 20 4 11 -3 20 -2 20 2 0 12 -98 43 -114
37 -10 -4 -15 27 -23 123 l-10 128 -1 -104 c-2 -76 -5 -102 -13 -94 -7 7 -9
47 -6 119 11 214 17 520 11 557 -3 20 -10 37 -15 37 -5 0 -10 -104 -11 -242z
m-1 -450 c-2 -24 -4 -7 -4 37 0 44 2 63 4 43 2 -21 2 -57 0 -80z"/>
<path d="M31671 5924 c0 -11 3 -14 6 -6 3 7 2 16 -1 19 -3 4 -6 -2 -5 -13z"/>
<path d="M31915 7529 c-11 -17 1 -21 15 -4 8 9 8 15 2 15 -6 0 -14 -5 -17 -11z"/>
<path d="M31748 7287 c-12 -30 -14 -55 -9 -87 6 -41 7 -43 14 -18 9 34 21 148
16 148 -2 0 -12 -19 -21 -43z"/>
<path d="M26035 7280 c-3 -5 -2 -10 4 -10 5 0 13 5 16 10 3 6 2 10 -4 10 -5 0
-13 -4 -16 -10z"/>
<path d="M25638 7033 c-29 -7 -20 -21 20 -32 47 -14 62 -14 62 -1 0 6 8 10 18
10 14 1 15 2 2 9 -19 11 -80 19 -102 14z"/>
<path d="M25863 7033 c9 -2 23 -2 30 0 6 3 -1 5 -18 5 -16 0 -22 -2 -12 -5z"/>
<path d="M26030 7030 c0 -5 9 -10 20 -10 11 0 20 5 20 10 0 6 -9 10 -20 10
-11 0 -20 -4 -20 -10z"/>
<path d="M26150 6979 c-45 -89 -47 -132 -14 -313 26 -144 27 -162 15 -224 -42
-226 -40 -262 15 -317 33 -33 38 -35 104 -35 38 0 101 5 139 12 61 10 71 15
76 36 3 13 19 41 35 61 64 81 110 209 110 311 0 30 -14 121 -32 202 l-32 148
-50 33 c-28 19 -82 60 -121 91 l-70 56 -72 0 -73 0 -30 -61z"/>
<path d="M25840 6145 c0 -19 24 -29 46 -21 13 5 14 9 4 21 -16 20 -50 19 -50
0z"/>
<path d="M26330 6050 c0 -5 4 -10 9 -10 6 0 13 5 16 10 3 6 -1 10 -9 10 -9 0
-16 -4 -16 -10z"/>
<path d="M26195 6020 c-18 -8 -17 -9 8 -9 16 -1 26 3 22 9 -3 6 -7 10 -8 9 -1
0 -11 -4 -22 -9z"/>
<path d="M26376 5904 c-23 -22 -20 -34 9 -34 20 0 25 5 25 25 0 29 -12 32 -34
9z"/>
<path d="M25755 5700 c-3 -5 -1 -10 4 -10 6 0 11 5 11 10 0 6 -2 10 -4 10 -3
0 -8 -4 -11 -10z"/>
<path d="M26330 5590 c0 -5 11 -10 25 -10 14 0 25 5 25 10 0 6 -11 10 -25 10
-14 0 -25 -4 -25 -10z"/>
<path d="M26230 5580 c0 -5 11 -10 25 -10 14 0 25 5 25 10 0 6 -11 10 -25 10
-14 0 -25 -4 -25 -10z"/>
<path d="M26070 5570 c-15 -5 2 -6 45 -3 39 3 72 7 74 9 8 8 -95 2 -119 -6z"/>
<path d="M26000 5559 c0 -5 5 -7 10 -4 6 3 10 8 10 11 0 2 -4 4 -10 4 -5 0
-10 -5 -10 -11z"/>
<path d="M26180 5479 c-49 -95 -55 -163 -53 -609 1 -228 5 -448 8 -488 7 -73
7 -74 43 -89 21 -9 63 -19 95 -23 53 -6 63 -4 101 20 40 26 116 108 116 125 0
5 6 16 14 24 8 9 33 75 57 146 l43 130 1 155 c0 256 -40 392 -143 492 -138
133 -173 158 -219 158 -40 0 -44 -3 -63 -41z m131 -142 c-16 -39 -17 -50 -8
-105 6 -34 5 -43 -5 -40 -7 3 -14 18 -16 35 -3 33 -33 53 -77 53 -42 0 -27 19
17 22 36 3 43 7 51 33 14 43 28 58 41 45 7 -7 6 -20 -3 -43z m-6 -327 c0 -7
-6 -15 -12 -17 -8 -3 -13 4 -13 17 0 13 5 20 13 18 6 -3 12 -11 12 -18z m5
-84 c0 -46 -22 -80 -33 -52 -4 9 -2 18 3 21 6 4 7 17 4 30 -6 25 1 45 17 45 5
0 9 -20 9 -44z m-5 -96 c3 -5 3 -15 -1 -21 -6 -11 -23 6 -24 24 0 10 18 9 25
-3z m84 -215 c0 -30 -4 -55 -9 -55 -6 0 -10 25 -10 55 0 30 4 55 9 55 5 0 9
-25 10 -55z"/>
<path d="M12842 2787 c-52 -86 -97 -194 -146 -346 -26 -79 -45 -145 -44 -146
2 -1 87 0 191 3 130 3 187 8 187 16 0 39 -133 502 -149 518 -4 5 -21 -16 -39
-45z"/>
<path d="M18547 2783 c-49 -80 -98 -198 -147 -349 -22 -70 -40 -130 -40 -134
0 -6 371 -1 378 5 9 8 -132 511 -148 528 -4 5 -24 -18 -43 -50z"/>
</g>
</svg>
